M48
; DRILL file {KiCad (6.0.9)} date Sat Mar  2 11:40:01 2024
; FORMAT={-:-/ absolute / metric / decimal}
; #@! TF.CreationDate,2024-03-02T11:40:01+05:30
; #@! TF.GenerationSoftware,Kicad,Pcbnew,(6.0.9)
; #@! TF.FileFunction,Plated,1,2,PTH
FMAT,2
METRIC
; #@! TA.AperFunction,Plated,PTH,ViaDrill
T1C0.400
; #@! TA.AperFunction,Plated,PTH,ComponentDrill
T2C0.762
; #@! TA.AperFunction,Plated,PTH,ComponentDrill
T3C0.800
; #@! TA.AperFunction,Plated,PTH,ComponentDrill
T4C1.000
; #@! TA.AperFunction,Plated,PTH,ComponentDrill
T5C1.100
; #@! TA.AperFunction,Plated,PTH,ComponentDrill
T6C1.270
; #@! TA.AperFunction,Plated,PTH,ComponentDrill
T7C1.300
; #@! TA.AperFunction,Plated,PTH,ComponentDrill
T8C1.524
; #@! TA.AperFunction,Plated,PTH,ComponentDrill
T9C3.000
%
G90
G05
T1
X73.66Y-68.58
X92.355Y-48.26
X93.98Y-114.3
X99.06Y-78.74
X99.06Y-139.7
X106.68Y-88.9
X106.68Y-121.92
X120.425Y-102.0
T2
X103.0Y-83.82
X103.0Y-99.06
X108.05Y-108.643
X109.22Y-134.62
X111.76Y-134.62
X114.3Y-134.62
X120.425Y-105.786
T3
X76.2Y-60.96
X79.7Y-60.96
X86.36Y-62.54
X86.36Y-66.04
X87.64Y-138.44
X87.64Y-140.98
X87.64Y-143.52
X87.64Y-146.06
X87.721Y-132.08
X92.7Y-86.365
X92.7Y-96.525
X92.7Y-110.14
X92.7Y-120.3
X95.24Y-86.365
X95.24Y-96.525
X95.24Y-110.14
X95.24Y-120.3
X95.26Y-138.44
X95.26Y-140.98
X95.26Y-143.52
X95.26Y-146.06
X95.341Y-132.08
X97.78Y-86.365
X97.78Y-96.525
X97.78Y-110.14
X97.78Y-120.3
X97.79Y-81.28
X97.79Y-101.6
X97.79Y-106.68
X99.06Y-47.3
X99.06Y-50.8
X100.32Y-86.365
X100.32Y-96.525
X100.32Y-110.14
X100.32Y-120.3
X101.6Y-60.96
X101.6Y-64.46
X101.6Y-129.54
X101.6Y-133.35
X101.6Y-140.97
X104.14Y-116.84
X105.41Y-81.28
X105.41Y-101.6
X105.41Y-106.68
X106.751Y-138.44
X106.751Y-140.98
X106.751Y-143.52
X106.751Y-146.06
X107.95Y-81.28
X109.22Y-129.54
X110.48Y-93.96
X110.48Y-104.12
X110.49Y-111.76
X111.76Y-116.84
X113.02Y-93.96
X113.02Y-104.12
X115.56Y-93.96
X115.56Y-104.12
X115.57Y-81.28
X116.911Y-138.44
X116.911Y-140.98
X116.911Y-143.52
X116.911Y-146.06
X118.1Y-93.96
X118.1Y-104.12
X118.11Y-111.76
T4
X86.08Y-115.875
X86.36Y-78.74
X86.36Y-96.52
X86.36Y-107.62
X119.38Y-129.54
X121.92Y-88.9
T5
X93.98Y-54.92
X93.98Y-57.46
X93.98Y-60.0
X106.68Y-48.26
X106.68Y-58.42
X109.22Y-63.5
X111.76Y-48.26
X111.76Y-58.42
X111.76Y-63.5
X114.3Y-63.5
X119.38Y-60.96
X119.38Y-66.04
X129.54Y-60.96
X129.54Y-66.04
T6
X77.561Y-140.98
X77.825Y-115.24
X78.105Y-80.645
X126.365Y-80.645
X126.365Y-141.605
X127.0Y-115.24
T7
X76.195Y-51.105
X77.68Y-88.89
X77.68Y-93.97
X77.68Y-101.59
X77.68Y-106.67
X77.68Y-126.908
X77.68Y-131.988
X81.275Y-51.105
X86.355Y-51.105
X119.375Y-51.105
X124.455Y-51.105
X127.0Y-88.9
X127.0Y-93.98
X127.0Y-101.6
X127.0Y-106.68
X127.0Y-127.0
X127.0Y-132.08
X129.535Y-51.105
T8
X74.386Y-137.805
X74.386Y-144.155
X74.65Y-112.065
X74.65Y-118.415
X74.93Y-77.47
X74.93Y-83.82
X80.736Y-137.805
X80.736Y-144.155
X81.0Y-112.065
X81.0Y-118.415
X81.28Y-77.47
X81.28Y-83.82
X123.19Y-77.47
X123.19Y-83.82
X123.19Y-138.43
X123.19Y-144.78
X123.825Y-112.065
X123.825Y-118.415
X129.54Y-77.47
X129.54Y-83.82
X129.54Y-138.43
X129.54Y-144.78
X130.175Y-112.065
X130.175Y-118.415
T9
X78.74Y-71.12
X86.36Y-124.46
X116.84Y-124.46
X124.46Y-71.12
T0
M30
