%TF.GenerationSoftware,KiCad,Pcbnew,(6.0.9)*%
%TF.CreationDate,2024-03-02T11:40:23+05:30*%
%TF.ProjectId,CT_2.0.0,43545f32-2e30-42e3-902e-6b696361645f,rev?*%
%TF.SameCoordinates,Original*%
%TF.FileFunction,Drillmap*%
%TF.FilePolarity,Positive*%
%FSLAX45Y45*%
G04 Gerber Fmt 4.5, Leading zero omitted, Abs format (unit mm)*
G04 Created by KiCad (PCBNEW (6.0.9)) date 2024-03-02 11:40:23*
%MOMM*%
%LPD*%
G01*
G04 APERTURE LIST*
%ADD10C,0.100000*%
%ADD11C,0.200000*%
%ADD12C,0.040000*%
%ADD13C,0.076200*%
%ADD14C,0.080000*%
%ADD15C,0.110000*%
%ADD16C,0.127000*%
%ADD17C,0.130000*%
%ADD18C,0.152400*%
%ADD19C,0.300000*%
G04 APERTURE END LIST*
D10*
X7030000Y-4480000D02*
X13300000Y-4480000D01*
X13300000Y-4480000D02*
X13300000Y-14940000D01*
X13300000Y-14940000D02*
X7030000Y-14940000D01*
X7030000Y-14940000D02*
X7030000Y-4480000D01*
D11*
D12*
X7346000Y-6838000D02*
X7386000Y-6878000D01*
X7386000Y-6838000D02*
X7346000Y-6878000D01*
X9215500Y-4806000D02*
X9255500Y-4846000D01*
X9255500Y-4806000D02*
X9215500Y-4846000D01*
X9378000Y-11410000D02*
X9418000Y-11450000D01*
X9418000Y-11410000D02*
X9378000Y-11450000D01*
X9886000Y-7854000D02*
X9926000Y-7894000D01*
X9926000Y-7854000D02*
X9886000Y-7894000D01*
X9886000Y-13950000D02*
X9926000Y-13990000D01*
X9926000Y-13950000D02*
X9886000Y-13990000D01*
X10648000Y-8870000D02*
X10688000Y-8910000D01*
X10688000Y-8870000D02*
X10648000Y-8910000D01*
X10648000Y-12172000D02*
X10688000Y-12212000D01*
X10688000Y-12172000D02*
X10648000Y-12212000D01*
X12022470Y-10180000D02*
X12062470Y-10220000D01*
X12062470Y-10180000D02*
X12022470Y-10220000D01*
D13*
X10338100Y-8382000D02*
G75*
G03*
X10338100Y-8382000I-38100J0D01*
G01*
X10338100Y-9906000D02*
G75*
G03*
X10338100Y-9906000I-38100J0D01*
G01*
X10843120Y-10864275D02*
G75*
G03*
X10843120Y-10864275I-38100J0D01*
G01*
X10960100Y-13462000D02*
G75*
G03*
X10960100Y-13462000I-38100J0D01*
G01*
X11214100Y-13462000D02*
G75*
G03*
X11214100Y-13462000I-38100J0D01*
G01*
X11468100Y-13462000D02*
G75*
G03*
X11468100Y-13462000I-38100J0D01*
G01*
X12080570Y-10578587D02*
G75*
G03*
X12080570Y-10578587I-38100J0D01*
G01*
D14*
X7620000Y-6056000D02*
X7620000Y-6136000D01*
X7580000Y-6096000D02*
X7660000Y-6096000D01*
X7970000Y-6056000D02*
X7970000Y-6136000D01*
X7930000Y-6096000D02*
X8010000Y-6096000D01*
X8636000Y-6214000D02*
X8636000Y-6294000D01*
X8596000Y-6254000D02*
X8676000Y-6254000D01*
X8636000Y-6564000D02*
X8636000Y-6644000D01*
X8596000Y-6604000D02*
X8676000Y-6604000D01*
X8764000Y-13804000D02*
X8764000Y-13884000D01*
X8724000Y-13844000D02*
X8804000Y-13844000D01*
X8764000Y-14058000D02*
X8764000Y-14138000D01*
X8724000Y-14098000D02*
X8804000Y-14098000D01*
X8764000Y-14312000D02*
X8764000Y-14392000D01*
X8724000Y-14352000D02*
X8804000Y-14352000D01*
X8764000Y-14566000D02*
X8764000Y-14646000D01*
X8724000Y-14606000D02*
X8804000Y-14606000D01*
X8772150Y-13168000D02*
X8772150Y-13248000D01*
X8732150Y-13208000D02*
X8812150Y-13208000D01*
X9270000Y-8596500D02*
X9270000Y-8676500D01*
X9230000Y-8636500D02*
X9310000Y-8636500D01*
X9270000Y-9612500D02*
X9270000Y-9692500D01*
X9230000Y-9652500D02*
X9310000Y-9652500D01*
X9270000Y-10974000D02*
X9270000Y-11054000D01*
X9230000Y-11014000D02*
X9310000Y-11014000D01*
X9270000Y-11990000D02*
X9270000Y-12070000D01*
X9230000Y-12030000D02*
X9310000Y-12030000D01*
X9524000Y-8596500D02*
X9524000Y-8676500D01*
X9484000Y-8636500D02*
X9564000Y-8636500D01*
X9524000Y-9612500D02*
X9524000Y-9692500D01*
X9484000Y-9652500D02*
X9564000Y-9652500D01*
X9524000Y-10974000D02*
X9524000Y-11054000D01*
X9484000Y-11014000D02*
X9564000Y-11014000D01*
X9524000Y-11990000D02*
X9524000Y-12070000D01*
X9484000Y-12030000D02*
X9564000Y-12030000D01*
X9526000Y-13804000D02*
X9526000Y-13884000D01*
X9486000Y-13844000D02*
X9566000Y-13844000D01*
X9526000Y-14058000D02*
X9526000Y-14138000D01*
X9486000Y-14098000D02*
X9566000Y-14098000D01*
X9526000Y-14312000D02*
X9526000Y-14392000D01*
X9486000Y-14352000D02*
X9566000Y-14352000D01*
X9526000Y-14566000D02*
X9526000Y-14646000D01*
X9486000Y-14606000D02*
X9566000Y-14606000D01*
X9534150Y-13168000D02*
X9534150Y-13248000D01*
X9494150Y-13208000D02*
X9574150Y-13208000D01*
X9778000Y-8596500D02*
X9778000Y-8676500D01*
X9738000Y-8636500D02*
X9818000Y-8636500D01*
X9778000Y-9612500D02*
X9778000Y-9692500D01*
X9738000Y-9652500D02*
X9818000Y-9652500D01*
X9778000Y-10974000D02*
X9778000Y-11054000D01*
X9738000Y-11014000D02*
X9818000Y-11014000D01*
X9778000Y-11990000D02*
X9778000Y-12070000D01*
X9738000Y-12030000D02*
X9818000Y-12030000D01*
X9779000Y-8088000D02*
X9779000Y-8168000D01*
X9739000Y-8128000D02*
X9819000Y-8128000D01*
X9779000Y-10120000D02*
X9779000Y-10200000D01*
X9739000Y-10160000D02*
X9819000Y-10160000D01*
X9779000Y-10628000D02*
X9779000Y-10708000D01*
X9739000Y-10668000D02*
X9819000Y-10668000D01*
X9906000Y-4690000D02*
X9906000Y-4770000D01*
X9866000Y-4730000D02*
X9946000Y-4730000D01*
X9906000Y-5040000D02*
X9906000Y-5120000D01*
X9866000Y-5080000D02*
X9946000Y-5080000D01*
X10032000Y-8596500D02*
X10032000Y-8676500D01*
X9992000Y-8636500D02*
X10072000Y-8636500D01*
X10032000Y-9612500D02*
X10032000Y-9692500D01*
X9992000Y-9652500D02*
X10072000Y-9652500D01*
X10032000Y-10974000D02*
X10032000Y-11054000D01*
X9992000Y-11014000D02*
X10072000Y-11014000D01*
X10032000Y-11990000D02*
X10032000Y-12070000D01*
X9992000Y-12030000D02*
X10072000Y-12030000D01*
X10160000Y-6056000D02*
X10160000Y-6136000D01*
X10120000Y-6096000D02*
X10200000Y-6096000D01*
X10160000Y-6406000D02*
X10160000Y-6486000D01*
X10120000Y-6446000D02*
X10200000Y-6446000D01*
X10160000Y-12914000D02*
X10160000Y-12994000D01*
X10120000Y-12954000D02*
X10200000Y-12954000D01*
X10160000Y-13295000D02*
X10160000Y-13375000D01*
X10120000Y-13335000D02*
X10200000Y-13335000D01*
X10160000Y-14057000D02*
X10160000Y-14137000D01*
X10120000Y-14097000D02*
X10200000Y-14097000D01*
X10414000Y-11644000D02*
X10414000Y-11724000D01*
X10374000Y-11684000D02*
X10454000Y-11684000D01*
X10541000Y-8088000D02*
X10541000Y-8168000D01*
X10501000Y-8128000D02*
X10581000Y-8128000D01*
X10541000Y-10120000D02*
X10541000Y-10200000D01*
X10501000Y-10160000D02*
X10581000Y-10160000D01*
X10541000Y-10628000D02*
X10541000Y-10708000D01*
X10501000Y-10668000D02*
X10581000Y-10668000D01*
X10675150Y-13804000D02*
X10675150Y-13884000D01*
X10635150Y-13844000D02*
X10715150Y-13844000D01*
X10675150Y-14058000D02*
X10675150Y-14138000D01*
X10635150Y-14098000D02*
X10715150Y-14098000D01*
X10675150Y-14312000D02*
X10675150Y-14392000D01*
X10635150Y-14352000D02*
X10715150Y-14352000D01*
X10675150Y-14566000D02*
X10675150Y-14646000D01*
X10635150Y-14606000D02*
X10715150Y-14606000D01*
X10795000Y-8088000D02*
X10795000Y-8168000D01*
X10755000Y-8128000D02*
X10835000Y-8128000D01*
X10922000Y-12914000D02*
X10922000Y-12994000D01*
X10882000Y-12954000D02*
X10962000Y-12954000D01*
X11048000Y-9356000D02*
X11048000Y-9436000D01*
X11008000Y-9396000D02*
X11088000Y-9396000D01*
X11048000Y-10372000D02*
X11048000Y-10452000D01*
X11008000Y-10412000D02*
X11088000Y-10412000D01*
X11049000Y-11136000D02*
X11049000Y-11216000D01*
X11009000Y-11176000D02*
X11089000Y-11176000D01*
X11176000Y-11644000D02*
X11176000Y-11724000D01*
X11136000Y-11684000D02*
X11216000Y-11684000D01*
X11302000Y-9356000D02*
X11302000Y-9436000D01*
X11262000Y-9396000D02*
X11342000Y-9396000D01*
X11302000Y-10372000D02*
X11302000Y-10452000D01*
X11262000Y-10412000D02*
X11342000Y-10412000D01*
X11556000Y-9356000D02*
X11556000Y-9436000D01*
X11516000Y-9396000D02*
X11596000Y-9396000D01*
X11556000Y-10372000D02*
X11556000Y-10452000D01*
X11516000Y-10412000D02*
X11596000Y-10412000D01*
X11557000Y-8088000D02*
X11557000Y-8168000D01*
X11517000Y-8128000D02*
X11597000Y-8128000D01*
X11691150Y-13804000D02*
X11691150Y-13884000D01*
X11651150Y-13844000D02*
X11731150Y-13844000D01*
X11691150Y-14058000D02*
X11691150Y-14138000D01*
X11651150Y-14098000D02*
X11731150Y-14098000D01*
X11691150Y-14312000D02*
X11691150Y-14392000D01*
X11651150Y-14352000D02*
X11731150Y-14352000D01*
X11691150Y-14566000D02*
X11691150Y-14646000D01*
X11651150Y-14606000D02*
X11731150Y-14606000D01*
X11810000Y-9356000D02*
X11810000Y-9436000D01*
X11770000Y-9396000D02*
X11850000Y-9396000D01*
X11810000Y-10372000D02*
X11810000Y-10452000D01*
X11770000Y-10412000D02*
X11850000Y-10412000D01*
X11811000Y-11136000D02*
X11811000Y-11216000D01*
X11771000Y-11176000D02*
X11851000Y-11176000D01*
D10*
X8643356Y-11622856D02*
X8643356Y-11552144D01*
X8572644Y-11552144D01*
X8572644Y-11622856D01*
X8643356Y-11622856D01*
X8671356Y-7909356D02*
X8671356Y-7838644D01*
X8600644Y-7838644D01*
X8600644Y-7909356D01*
X8671356Y-7909356D01*
X8671356Y-9687356D02*
X8671356Y-9616644D01*
X8600644Y-9616644D01*
X8600644Y-9687356D01*
X8671356Y-9687356D01*
X8671356Y-10797356D02*
X8671356Y-10726644D01*
X8600644Y-10726644D01*
X8600644Y-10797356D01*
X8671356Y-10797356D01*
X11973356Y-12989356D02*
X11973356Y-12918644D01*
X11902644Y-12918644D01*
X11902644Y-12989356D01*
X11973356Y-12989356D01*
X12227356Y-8925356D02*
X12227356Y-8854644D01*
X12156644Y-8854644D01*
X12156644Y-8925356D01*
X12227356Y-8925356D01*
D15*
X9398000Y-5547000D02*
X9453000Y-5492000D01*
X9398000Y-5437000D01*
X9343000Y-5492000D01*
X9398000Y-5547000D01*
X9398000Y-5801000D02*
X9453000Y-5746000D01*
X9398000Y-5691000D01*
X9343000Y-5746000D01*
X9398000Y-5801000D01*
X9398000Y-6055000D02*
X9453000Y-6000000D01*
X9398000Y-5945000D01*
X9343000Y-6000000D01*
X9398000Y-6055000D01*
X10668000Y-4881000D02*
X10723000Y-4826000D01*
X10668000Y-4771000D01*
X10613000Y-4826000D01*
X10668000Y-4881000D01*
X10668000Y-5897000D02*
X10723000Y-5842000D01*
X10668000Y-5787000D01*
X10613000Y-5842000D01*
X10668000Y-5897000D01*
X10922000Y-6405000D02*
X10977000Y-6350000D01*
X10922000Y-6295000D01*
X10867000Y-6350000D01*
X10922000Y-6405000D01*
X11176000Y-4881000D02*
X11231000Y-4826000D01*
X11176000Y-4771000D01*
X11121000Y-4826000D01*
X11176000Y-4881000D01*
X11176000Y-5897000D02*
X11231000Y-5842000D01*
X11176000Y-5787000D01*
X11121000Y-5842000D01*
X11176000Y-5897000D01*
X11176000Y-6405000D02*
X11231000Y-6350000D01*
X11176000Y-6295000D01*
X11121000Y-6350000D01*
X11176000Y-6405000D01*
X11430000Y-6405000D02*
X11485000Y-6350000D01*
X11430000Y-6295000D01*
X11375000Y-6350000D01*
X11430000Y-6405000D01*
X11938000Y-6151000D02*
X11993000Y-6096000D01*
X11938000Y-6041000D01*
X11883000Y-6096000D01*
X11938000Y-6151000D01*
X11938000Y-6659000D02*
X11993000Y-6604000D01*
X11938000Y-6549000D01*
X11883000Y-6604000D01*
X11938000Y-6659000D01*
X12954000Y-6151000D02*
X13009000Y-6096000D01*
X12954000Y-6041000D01*
X12899000Y-6096000D01*
X12954000Y-6151000D01*
X12954000Y-6659000D02*
X13009000Y-6604000D01*
X12954000Y-6549000D01*
X12899000Y-6604000D01*
X12954000Y-6659000D01*
D16*
X7692650Y-14034500D02*
X7819650Y-14161500D01*
X7819650Y-14034500D02*
X7692650Y-14161500D01*
X7819650Y-14098000D02*
G75*
G03*
X7819650Y-14098000I-63500J0D01*
G01*
X7719000Y-11460500D02*
X7846000Y-11587500D01*
X7846000Y-11460500D02*
X7719000Y-11587500D01*
X7846000Y-11524000D02*
G75*
G03*
X7846000Y-11524000I-63500J0D01*
G01*
X7747000Y-8001000D02*
X7874000Y-8128000D01*
X7874000Y-8001000D02*
X7747000Y-8128000D01*
X7874000Y-8064500D02*
G75*
G03*
X7874000Y-8064500I-63500J0D01*
G01*
X12573000Y-8001000D02*
X12700000Y-8128000D01*
X12700000Y-8001000D02*
X12573000Y-8128000D01*
X12700000Y-8064500D02*
G75*
G03*
X12700000Y-8064500I-63500J0D01*
G01*
X12573000Y-14097000D02*
X12700000Y-14224000D01*
X12700000Y-14097000D02*
X12573000Y-14224000D01*
X12700000Y-14160500D02*
G75*
G03*
X12700000Y-14160500I-63500J0D01*
G01*
X12636500Y-11460500D02*
X12763500Y-11587500D01*
X12763500Y-11460500D02*
X12636500Y-11587500D01*
X12763500Y-11524000D02*
G75*
G03*
X12763500Y-11524000I-63500J0D01*
G01*
D17*
X7554500Y-5045500D02*
X7684500Y-5175500D01*
X7684500Y-5045500D02*
X7554500Y-5175500D01*
X7619500Y-5045500D02*
X7619500Y-5175500D01*
X7554500Y-5110500D02*
X7684500Y-5110500D01*
X7703000Y-8824000D02*
X7833000Y-8954000D01*
X7833000Y-8824000D02*
X7703000Y-8954000D01*
X7768000Y-8824000D02*
X7768000Y-8954000D01*
X7703000Y-8889000D02*
X7833000Y-8889000D01*
X7703000Y-9332000D02*
X7833000Y-9462000D01*
X7833000Y-9332000D02*
X7703000Y-9462000D01*
X7768000Y-9332000D02*
X7768000Y-9462000D01*
X7703000Y-9397000D02*
X7833000Y-9397000D01*
X7703000Y-10094000D02*
X7833000Y-10224000D01*
X7833000Y-10094000D02*
X7703000Y-10224000D01*
X7768000Y-10094000D02*
X7768000Y-10224000D01*
X7703000Y-10159000D02*
X7833000Y-10159000D01*
X7703000Y-10602000D02*
X7833000Y-10732000D01*
X7833000Y-10602000D02*
X7703000Y-10732000D01*
X7768000Y-10602000D02*
X7768000Y-10732000D01*
X7703000Y-10667000D02*
X7833000Y-10667000D01*
X7703000Y-12625850D02*
X7833000Y-12755850D01*
X7833000Y-12625850D02*
X7703000Y-12755850D01*
X7768000Y-12625850D02*
X7768000Y-12755850D01*
X7703000Y-12690850D02*
X7833000Y-12690850D01*
X7703000Y-13133850D02*
X7833000Y-13263850D01*
X7833000Y-13133850D02*
X7703000Y-13263850D01*
X7768000Y-13133850D02*
X7768000Y-13263850D01*
X7703000Y-13198850D02*
X7833000Y-13198850D01*
X8062500Y-5045500D02*
X8192500Y-5175500D01*
X8192500Y-5045500D02*
X8062500Y-5175500D01*
X8127500Y-5045500D02*
X8127500Y-5175500D01*
X8062500Y-5110500D02*
X8192500Y-5110500D01*
X8570500Y-5045500D02*
X8700500Y-5175500D01*
X8700500Y-5045500D02*
X8570500Y-5175500D01*
X8635500Y-5045500D02*
X8635500Y-5175500D01*
X8570500Y-5110500D02*
X8700500Y-5110500D01*
X11872500Y-5045500D02*
X12002500Y-5175500D01*
X12002500Y-5045500D02*
X11872500Y-5175500D01*
X11937500Y-5045500D02*
X11937500Y-5175500D01*
X11872500Y-5110500D02*
X12002500Y-5110500D01*
X12380500Y-5045500D02*
X12510500Y-5175500D01*
X12510500Y-5045500D02*
X12380500Y-5175500D01*
X12445500Y-5045500D02*
X12445500Y-5175500D01*
X12380500Y-5110500D02*
X12510500Y-5110500D01*
X12635000Y-8825000D02*
X12765000Y-8955000D01*
X12765000Y-8825000D02*
X12635000Y-8955000D01*
X12700000Y-8825000D02*
X12700000Y-8955000D01*
X12635000Y-8890000D02*
X12765000Y-8890000D01*
X12635000Y-9333000D02*
X12765000Y-9463000D01*
X12765000Y-9333000D02*
X12635000Y-9463000D01*
X12700000Y-9333000D02*
X12700000Y-9463000D01*
X12635000Y-9398000D02*
X12765000Y-9398000D01*
X12635000Y-10095000D02*
X12765000Y-10225000D01*
X12765000Y-10095000D02*
X12635000Y-10225000D01*
X12700000Y-10095000D02*
X12700000Y-10225000D01*
X12635000Y-10160000D02*
X12765000Y-10160000D01*
X12635000Y-10603000D02*
X12765000Y-10733000D01*
X12765000Y-10603000D02*
X12635000Y-10733000D01*
X12700000Y-10603000D02*
X12700000Y-10733000D01*
X12635000Y-10668000D02*
X12765000Y-10668000D01*
X12635000Y-12635000D02*
X12765000Y-12765000D01*
X12765000Y-12635000D02*
X12635000Y-12765000D01*
X12700000Y-12635000D02*
X12700000Y-12765000D01*
X12635000Y-12700000D02*
X12765000Y-12700000D01*
X12635000Y-13143000D02*
X12765000Y-13273000D01*
X12765000Y-13143000D02*
X12635000Y-13273000D01*
X12700000Y-13143000D02*
X12700000Y-13273000D01*
X12635000Y-13208000D02*
X12765000Y-13208000D01*
X12888500Y-5045500D02*
X13018500Y-5175500D01*
X13018500Y-5045500D02*
X12888500Y-5175500D01*
X12953500Y-5045500D02*
X12953500Y-5175500D01*
X12888500Y-5110500D02*
X13018500Y-5110500D01*
D18*
X7362450Y-13704300D02*
X7514850Y-13856700D01*
X7514850Y-13704300D02*
X7362450Y-13856700D01*
X7492532Y-13834382D02*
X7492532Y-13726618D01*
X7384768Y-13726618D01*
X7384768Y-13834382D01*
X7492532Y-13834382D01*
X7362450Y-14339300D02*
X7514850Y-14491700D01*
X7514850Y-14339300D02*
X7362450Y-14491700D01*
X7492532Y-14469382D02*
X7492532Y-14361618D01*
X7384768Y-14361618D01*
X7384768Y-14469382D01*
X7492532Y-14469382D01*
X7388800Y-11130300D02*
X7541200Y-11282700D01*
X7541200Y-11130300D02*
X7388800Y-11282700D01*
X7518882Y-11260382D02*
X7518882Y-11152618D01*
X7411118Y-11152618D01*
X7411118Y-11260382D01*
X7518882Y-11260382D01*
X7388800Y-11765300D02*
X7541200Y-11917700D01*
X7541200Y-11765300D02*
X7388800Y-11917700D01*
X7518882Y-11895382D02*
X7518882Y-11787618D01*
X7411118Y-11787618D01*
X7411118Y-11895382D01*
X7518882Y-11895382D01*
X7416800Y-7670800D02*
X7569200Y-7823200D01*
X7569200Y-7670800D02*
X7416800Y-7823200D01*
X7546882Y-7800882D02*
X7546882Y-7693118D01*
X7439118Y-7693118D01*
X7439118Y-7800882D01*
X7546882Y-7800882D01*
X7416800Y-8305800D02*
X7569200Y-8458200D01*
X7569200Y-8305800D02*
X7416800Y-8458200D01*
X7546882Y-8435882D02*
X7546882Y-8328118D01*
X7439118Y-8328118D01*
X7439118Y-8435882D01*
X7546882Y-8435882D01*
X7997450Y-13704300D02*
X8149850Y-13856700D01*
X8149850Y-13704300D02*
X7997450Y-13856700D01*
X8127532Y-13834382D02*
X8127532Y-13726618D01*
X8019768Y-13726618D01*
X8019768Y-13834382D01*
X8127532Y-13834382D01*
X7997450Y-14339300D02*
X8149850Y-14491700D01*
X8149850Y-14339300D02*
X7997450Y-14491700D01*
X8127532Y-14469382D02*
X8127532Y-14361618D01*
X8019768Y-14361618D01*
X8019768Y-14469382D01*
X8127532Y-14469382D01*
X8023800Y-11130300D02*
X8176200Y-11282700D01*
X8176200Y-11130300D02*
X8023800Y-11282700D01*
X8153882Y-11260382D02*
X8153882Y-11152618D01*
X8046118Y-11152618D01*
X8046118Y-11260382D01*
X8153882Y-11260382D01*
X8023800Y-11765300D02*
X8176200Y-11917700D01*
X8176200Y-11765300D02*
X8023800Y-11917700D01*
X8153882Y-11895382D02*
X8153882Y-11787618D01*
X8046118Y-11787618D01*
X8046118Y-11895382D01*
X8153882Y-11895382D01*
X8051800Y-7670800D02*
X8204200Y-7823200D01*
X8204200Y-7670800D02*
X8051800Y-7823200D01*
X8181882Y-7800882D02*
X8181882Y-7693118D01*
X8074118Y-7693118D01*
X8074118Y-7800882D01*
X8181882Y-7800882D01*
X8051800Y-8305800D02*
X8204200Y-8458200D01*
X8204200Y-8305800D02*
X8051800Y-8458200D01*
X8181882Y-8435882D02*
X8181882Y-8328118D01*
X8074118Y-8328118D01*
X8074118Y-8435882D01*
X8181882Y-8435882D01*
X12242800Y-7670800D02*
X12395200Y-7823200D01*
X12395200Y-7670800D02*
X12242800Y-7823200D01*
X12372882Y-7800882D02*
X12372882Y-7693118D01*
X12265118Y-7693118D01*
X12265118Y-7800882D01*
X12372882Y-7800882D01*
X12242800Y-8305800D02*
X12395200Y-8458200D01*
X12395200Y-8305800D02*
X12242800Y-8458200D01*
X12372882Y-8435882D02*
X12372882Y-8328118D01*
X12265118Y-8328118D01*
X12265118Y-8435882D01*
X12372882Y-8435882D01*
X12242800Y-13766800D02*
X12395200Y-13919200D01*
X12395200Y-13766800D02*
X12242800Y-13919200D01*
X12372882Y-13896882D02*
X12372882Y-13789118D01*
X12265118Y-13789118D01*
X12265118Y-13896882D01*
X12372882Y-13896882D01*
X12242800Y-14401800D02*
X12395200Y-14554200D01*
X12395200Y-14401800D02*
X12242800Y-14554200D01*
X12372882Y-14531882D02*
X12372882Y-14424118D01*
X12265118Y-14424118D01*
X12265118Y-14531882D01*
X12372882Y-14531882D01*
X12306300Y-11130300D02*
X12458700Y-11282700D01*
X12458700Y-11130300D02*
X12306300Y-11282700D01*
X12436382Y-11260382D02*
X12436382Y-11152618D01*
X12328618Y-11152618D01*
X12328618Y-11260382D01*
X12436382Y-11260382D01*
X12306300Y-11765300D02*
X12458700Y-11917700D01*
X12458700Y-11765300D02*
X12306300Y-11917700D01*
X12436382Y-11895382D02*
X12436382Y-11787618D01*
X12328618Y-11787618D01*
X12328618Y-11895382D01*
X12436382Y-11895382D01*
X12877800Y-7670800D02*
X13030200Y-7823200D01*
X13030200Y-7670800D02*
X12877800Y-7823200D01*
X13007882Y-7800882D02*
X13007882Y-7693118D01*
X12900118Y-7693118D01*
X12900118Y-7800882D01*
X13007882Y-7800882D01*
X12877800Y-8305800D02*
X13030200Y-8458200D01*
X13030200Y-8305800D02*
X12877800Y-8458200D01*
X13007882Y-8435882D02*
X13007882Y-8328118D01*
X12900118Y-8328118D01*
X12900118Y-8435882D01*
X13007882Y-8435882D01*
X12877800Y-13766800D02*
X13030200Y-13919200D01*
X13030200Y-13766800D02*
X12877800Y-13919200D01*
X13007882Y-13896882D02*
X13007882Y-13789118D01*
X12900118Y-13789118D01*
X12900118Y-13896882D01*
X13007882Y-13896882D01*
X12877800Y-14401800D02*
X13030200Y-14554200D01*
X13030200Y-14401800D02*
X12877800Y-14554200D01*
X13007882Y-14531882D02*
X13007882Y-14424118D01*
X12900118Y-14424118D01*
X12900118Y-14531882D01*
X13007882Y-14531882D01*
X12941300Y-11130300D02*
X13093700Y-11282700D01*
X13093700Y-11130300D02*
X12941300Y-11282700D01*
X13071382Y-11260382D02*
X13071382Y-11152618D01*
X12963618Y-11152618D01*
X12963618Y-11260382D01*
X13071382Y-11260382D01*
X12941300Y-11765300D02*
X13093700Y-11917700D01*
X13093700Y-11765300D02*
X12941300Y-11917700D01*
X13071382Y-11895382D02*
X13071382Y-11787618D01*
X12963618Y-11787618D01*
X12963618Y-11895382D01*
X13071382Y-11895382D01*
D19*
X7724000Y-6962000D02*
X8024000Y-7262000D01*
X8024000Y-6962000D02*
X7724000Y-7262000D01*
X7874000Y-7262000D02*
X8024000Y-7112000D01*
X7874000Y-6962000D01*
X7724000Y-7112000D01*
X7874000Y-7262000D01*
X8486000Y-12296000D02*
X8786000Y-12596000D01*
X8786000Y-12296000D02*
X8486000Y-12596000D01*
X8636000Y-12596000D02*
X8786000Y-12446000D01*
X8636000Y-12296000D01*
X8486000Y-12446000D01*
X8636000Y-12596000D01*
X11534000Y-12296000D02*
X11834000Y-12596000D01*
X11834000Y-12296000D02*
X11534000Y-12596000D01*
X11684000Y-12596000D02*
X11834000Y-12446000D01*
X11684000Y-12296000D01*
X11534000Y-12446000D01*
X11684000Y-12596000D01*
X12296000Y-6962000D02*
X12596000Y-7262000D01*
X12596000Y-6962000D02*
X12296000Y-7262000D01*
X12446000Y-7262000D02*
X12596000Y-7112000D01*
X12446000Y-6962000D01*
X12296000Y-7112000D01*
X12446000Y-7262000D01*
D11*
X7282619Y-15255476D02*
X7282619Y-15055476D01*
X7330238Y-15055476D01*
X7358809Y-15065000D01*
X7377857Y-15084048D01*
X7387381Y-15103095D01*
X7396905Y-15141190D01*
X7396905Y-15169762D01*
X7387381Y-15207857D01*
X7377857Y-15226905D01*
X7358809Y-15245952D01*
X7330238Y-15255476D01*
X7282619Y-15255476D01*
X7482619Y-15255476D02*
X7482619Y-15122143D01*
X7482619Y-15160238D02*
X7492143Y-15141190D01*
X7501667Y-15131667D01*
X7520714Y-15122143D01*
X7539762Y-15122143D01*
X7606428Y-15255476D02*
X7606428Y-15122143D01*
X7606428Y-15055476D02*
X7596905Y-15065000D01*
X7606428Y-15074524D01*
X7615952Y-15065000D01*
X7606428Y-15055476D01*
X7606428Y-15074524D01*
X7730238Y-15255476D02*
X7711190Y-15245952D01*
X7701667Y-15226905D01*
X7701667Y-15055476D01*
X7835000Y-15255476D02*
X7815952Y-15245952D01*
X7806428Y-15226905D01*
X7806428Y-15055476D01*
X8063571Y-15255476D02*
X8063571Y-15055476D01*
X8130238Y-15198333D01*
X8196905Y-15055476D01*
X8196905Y-15255476D01*
X8377857Y-15255476D02*
X8377857Y-15150714D01*
X8368333Y-15131667D01*
X8349286Y-15122143D01*
X8311190Y-15122143D01*
X8292143Y-15131667D01*
X8377857Y-15245952D02*
X8358809Y-15255476D01*
X8311190Y-15255476D01*
X8292143Y-15245952D01*
X8282619Y-15226905D01*
X8282619Y-15207857D01*
X8292143Y-15188809D01*
X8311190Y-15179286D01*
X8358809Y-15179286D01*
X8377857Y-15169762D01*
X8473095Y-15122143D02*
X8473095Y-15322143D01*
X8473095Y-15131667D02*
X8492143Y-15122143D01*
X8530238Y-15122143D01*
X8549286Y-15131667D01*
X8558810Y-15141190D01*
X8568333Y-15160238D01*
X8568333Y-15217381D01*
X8558810Y-15236428D01*
X8549286Y-15245952D01*
X8530238Y-15255476D01*
X8492143Y-15255476D01*
X8473095Y-15245952D01*
X8654048Y-15236428D02*
X8663571Y-15245952D01*
X8654048Y-15255476D01*
X8644524Y-15245952D01*
X8654048Y-15236428D01*
X8654048Y-15255476D01*
X8654048Y-15131667D02*
X8663571Y-15141190D01*
X8654048Y-15150714D01*
X8644524Y-15141190D01*
X8654048Y-15131667D01*
X8654048Y-15150714D01*
D12*
X6985000Y-15565000D02*
X7025000Y-15605000D01*
X7025000Y-15565000D02*
X6985000Y-15605000D01*
D11*
X7320714Y-15475476D02*
X7339762Y-15475476D01*
X7358809Y-15485000D01*
X7368333Y-15494524D01*
X7377857Y-15513571D01*
X7387381Y-15551667D01*
X7387381Y-15599286D01*
X7377857Y-15637381D01*
X7368333Y-15656428D01*
X7358809Y-15665952D01*
X7339762Y-15675476D01*
X7320714Y-15675476D01*
X7301667Y-15665952D01*
X7292143Y-15656428D01*
X7282619Y-15637381D01*
X7273095Y-15599286D01*
X7273095Y-15551667D01*
X7282619Y-15513571D01*
X7292143Y-15494524D01*
X7301667Y-15485000D01*
X7320714Y-15475476D01*
X7473095Y-15656428D02*
X7482619Y-15665952D01*
X7473095Y-15675476D01*
X7463571Y-15665952D01*
X7473095Y-15656428D01*
X7473095Y-15675476D01*
X7654048Y-15542143D02*
X7654048Y-15675476D01*
X7606428Y-15465952D02*
X7558809Y-15608809D01*
X7682619Y-15608809D01*
X7796905Y-15475476D02*
X7815952Y-15475476D01*
X7835000Y-15485000D01*
X7844524Y-15494524D01*
X7854048Y-15513571D01*
X7863571Y-15551667D01*
X7863571Y-15599286D01*
X7854048Y-15637381D01*
X7844524Y-15656428D01*
X7835000Y-15665952D01*
X7815952Y-15675476D01*
X7796905Y-15675476D01*
X7777857Y-15665952D01*
X7768333Y-15656428D01*
X7758809Y-15637381D01*
X7749286Y-15599286D01*
X7749286Y-15551667D01*
X7758809Y-15513571D01*
X7768333Y-15494524D01*
X7777857Y-15485000D01*
X7796905Y-15475476D01*
X7987381Y-15475476D02*
X8006428Y-15475476D01*
X8025476Y-15485000D01*
X8035000Y-15494524D01*
X8044524Y-15513571D01*
X8054048Y-15551667D01*
X8054048Y-15599286D01*
X8044524Y-15637381D01*
X8035000Y-15656428D01*
X8025476Y-15665952D01*
X8006428Y-15675476D01*
X7987381Y-15675476D01*
X7968333Y-15665952D01*
X7958809Y-15656428D01*
X7949286Y-15637381D01*
X7939762Y-15599286D01*
X7939762Y-15551667D01*
X7949286Y-15513571D01*
X7958809Y-15494524D01*
X7968333Y-15485000D01*
X7987381Y-15475476D01*
X8139762Y-15675476D02*
X8139762Y-15542143D01*
X8139762Y-15561190D02*
X8149286Y-15551667D01*
X8168333Y-15542143D01*
X8196905Y-15542143D01*
X8215952Y-15551667D01*
X8225476Y-15570714D01*
X8225476Y-15675476D01*
X8225476Y-15570714D02*
X8235000Y-15551667D01*
X8254048Y-15542143D01*
X8282619Y-15542143D01*
X8301667Y-15551667D01*
X8311190Y-15570714D01*
X8311190Y-15675476D01*
X8406429Y-15675476D02*
X8406429Y-15542143D01*
X8406429Y-15561190D02*
X8415952Y-15551667D01*
X8435000Y-15542143D01*
X8463571Y-15542143D01*
X8482619Y-15551667D01*
X8492143Y-15570714D01*
X8492143Y-15675476D01*
X8492143Y-15570714D02*
X8501667Y-15551667D01*
X8520714Y-15542143D01*
X8549286Y-15542143D01*
X8568333Y-15551667D01*
X8577857Y-15570714D01*
X8577857Y-15675476D01*
X8968333Y-15465952D02*
X8796905Y-15723095D01*
X9225476Y-15475476D02*
X9244524Y-15475476D01*
X9263571Y-15485000D01*
X9273095Y-15494524D01*
X9282619Y-15513571D01*
X9292143Y-15551667D01*
X9292143Y-15599286D01*
X9282619Y-15637381D01*
X9273095Y-15656428D01*
X9263571Y-15665952D01*
X9244524Y-15675476D01*
X9225476Y-15675476D01*
X9206429Y-15665952D01*
X9196905Y-15656428D01*
X9187381Y-15637381D01*
X9177857Y-15599286D01*
X9177857Y-15551667D01*
X9187381Y-15513571D01*
X9196905Y-15494524D01*
X9206429Y-15485000D01*
X9225476Y-15475476D01*
X9377857Y-15656428D02*
X9387381Y-15665952D01*
X9377857Y-15675476D01*
X9368333Y-15665952D01*
X9377857Y-15656428D01*
X9377857Y-15675476D01*
X9511190Y-15475476D02*
X9530238Y-15475476D01*
X9549286Y-15485000D01*
X9558810Y-15494524D01*
X9568333Y-15513571D01*
X9577857Y-15551667D01*
X9577857Y-15599286D01*
X9568333Y-15637381D01*
X9558810Y-15656428D01*
X9549286Y-15665952D01*
X9530238Y-15675476D01*
X9511190Y-15675476D01*
X9492143Y-15665952D01*
X9482619Y-15656428D01*
X9473095Y-15637381D01*
X9463571Y-15599286D01*
X9463571Y-15551667D01*
X9473095Y-15513571D01*
X9482619Y-15494524D01*
X9492143Y-15485000D01*
X9511190Y-15475476D01*
X9768333Y-15675476D02*
X9654048Y-15675476D01*
X9711190Y-15675476D02*
X9711190Y-15475476D01*
X9692143Y-15504048D01*
X9673095Y-15523095D01*
X9654048Y-15532619D01*
X9949286Y-15475476D02*
X9854048Y-15475476D01*
X9844524Y-15570714D01*
X9854048Y-15561190D01*
X9873095Y-15551667D01*
X9920714Y-15551667D01*
X9939762Y-15561190D01*
X9949286Y-15570714D01*
X9958810Y-15589762D01*
X9958810Y-15637381D01*
X9949286Y-15656428D01*
X9939762Y-15665952D01*
X9920714Y-15675476D01*
X9873095Y-15675476D01*
X9854048Y-15665952D01*
X9844524Y-15656428D01*
X10025476Y-15475476D02*
X10158810Y-15475476D01*
X10073095Y-15675476D01*
X10225476Y-15475476D02*
X10225476Y-15513571D01*
X10301667Y-15475476D02*
X10301667Y-15513571D01*
X10596905Y-15751667D02*
X10587381Y-15742143D01*
X10568333Y-15713571D01*
X10558810Y-15694524D01*
X10549286Y-15665952D01*
X10539762Y-15618333D01*
X10539762Y-15580238D01*
X10549286Y-15532619D01*
X10558810Y-15504048D01*
X10568333Y-15485000D01*
X10587381Y-15456428D01*
X10596905Y-15446905D01*
X10701667Y-15561190D02*
X10682619Y-15551667D01*
X10673095Y-15542143D01*
X10663571Y-15523095D01*
X10663571Y-15513571D01*
X10673095Y-15494524D01*
X10682619Y-15485000D01*
X10701667Y-15475476D01*
X10739762Y-15475476D01*
X10758810Y-15485000D01*
X10768333Y-15494524D01*
X10777857Y-15513571D01*
X10777857Y-15523095D01*
X10768333Y-15542143D01*
X10758810Y-15551667D01*
X10739762Y-15561190D01*
X10701667Y-15561190D01*
X10682619Y-15570714D01*
X10673095Y-15580238D01*
X10663571Y-15599286D01*
X10663571Y-15637381D01*
X10673095Y-15656428D01*
X10682619Y-15665952D01*
X10701667Y-15675476D01*
X10739762Y-15675476D01*
X10758810Y-15665952D01*
X10768333Y-15656428D01*
X10777857Y-15637381D01*
X10777857Y-15599286D01*
X10768333Y-15580238D01*
X10758810Y-15570714D01*
X10739762Y-15561190D01*
X11015952Y-15675476D02*
X11015952Y-15475476D01*
X11101667Y-15675476D02*
X11101667Y-15570714D01*
X11092143Y-15551667D01*
X11073095Y-15542143D01*
X11044524Y-15542143D01*
X11025476Y-15551667D01*
X11015952Y-15561190D01*
X11225476Y-15675476D02*
X11206428Y-15665952D01*
X11196905Y-15656428D01*
X11187381Y-15637381D01*
X11187381Y-15580238D01*
X11196905Y-15561190D01*
X11206428Y-15551667D01*
X11225476Y-15542143D01*
X11254048Y-15542143D01*
X11273095Y-15551667D01*
X11282619Y-15561190D01*
X11292143Y-15580238D01*
X11292143Y-15637381D01*
X11282619Y-15656428D01*
X11273095Y-15665952D01*
X11254048Y-15675476D01*
X11225476Y-15675476D01*
X11406428Y-15675476D02*
X11387381Y-15665952D01*
X11377857Y-15646905D01*
X11377857Y-15475476D01*
X11558809Y-15665952D02*
X11539762Y-15675476D01*
X11501667Y-15675476D01*
X11482619Y-15665952D01*
X11473095Y-15646905D01*
X11473095Y-15570714D01*
X11482619Y-15551667D01*
X11501667Y-15542143D01*
X11539762Y-15542143D01*
X11558809Y-15551667D01*
X11568333Y-15570714D01*
X11568333Y-15589762D01*
X11473095Y-15608809D01*
X11644524Y-15665952D02*
X11663571Y-15675476D01*
X11701667Y-15675476D01*
X11720714Y-15665952D01*
X11730238Y-15646905D01*
X11730238Y-15637381D01*
X11720714Y-15618333D01*
X11701667Y-15608809D01*
X11673095Y-15608809D01*
X11654048Y-15599286D01*
X11644524Y-15580238D01*
X11644524Y-15570714D01*
X11654048Y-15551667D01*
X11673095Y-15542143D01*
X11701667Y-15542143D01*
X11720714Y-15551667D01*
X11796905Y-15751667D02*
X11806428Y-15742143D01*
X11825476Y-15713571D01*
X11835000Y-15694524D01*
X11844524Y-15665952D01*
X11854048Y-15618333D01*
X11854048Y-15580238D01*
X11844524Y-15532619D01*
X11835000Y-15504048D01*
X11825476Y-15485000D01*
X11806428Y-15456428D01*
X11796905Y-15446905D01*
D13*
X7025000Y-15849000D02*
G75*
G03*
X7025000Y-15849000I-38100J0D01*
G01*
D11*
X7320714Y-15739476D02*
X7339762Y-15739476D01*
X7358809Y-15749000D01*
X7368333Y-15758524D01*
X7377857Y-15777571D01*
X7387381Y-15815667D01*
X7387381Y-15863286D01*
X7377857Y-15901381D01*
X7368333Y-15920428D01*
X7358809Y-15929952D01*
X7339762Y-15939476D01*
X7320714Y-15939476D01*
X7301667Y-15929952D01*
X7292143Y-15920428D01*
X7282619Y-15901381D01*
X7273095Y-15863286D01*
X7273095Y-15815667D01*
X7282619Y-15777571D01*
X7292143Y-15758524D01*
X7301667Y-15749000D01*
X7320714Y-15739476D01*
X7473095Y-15920428D02*
X7482619Y-15929952D01*
X7473095Y-15939476D01*
X7463571Y-15929952D01*
X7473095Y-15920428D01*
X7473095Y-15939476D01*
X7549286Y-15739476D02*
X7682619Y-15739476D01*
X7596905Y-15939476D01*
X7844524Y-15739476D02*
X7806428Y-15739476D01*
X7787381Y-15749000D01*
X7777857Y-15758524D01*
X7758809Y-15787095D01*
X7749286Y-15825190D01*
X7749286Y-15901381D01*
X7758809Y-15920428D01*
X7768333Y-15929952D01*
X7787381Y-15939476D01*
X7825476Y-15939476D01*
X7844524Y-15929952D01*
X7854048Y-15920428D01*
X7863571Y-15901381D01*
X7863571Y-15853762D01*
X7854048Y-15834714D01*
X7844524Y-15825190D01*
X7825476Y-15815667D01*
X7787381Y-15815667D01*
X7768333Y-15825190D01*
X7758809Y-15834714D01*
X7749286Y-15853762D01*
X7939762Y-15758524D02*
X7949286Y-15749000D01*
X7968333Y-15739476D01*
X8015952Y-15739476D01*
X8035000Y-15749000D01*
X8044524Y-15758524D01*
X8054048Y-15777571D01*
X8054048Y-15796619D01*
X8044524Y-15825190D01*
X7930238Y-15939476D01*
X8054048Y-15939476D01*
X8139762Y-15939476D02*
X8139762Y-15806143D01*
X8139762Y-15825190D02*
X8149286Y-15815667D01*
X8168333Y-15806143D01*
X8196905Y-15806143D01*
X8215952Y-15815667D01*
X8225476Y-15834714D01*
X8225476Y-15939476D01*
X8225476Y-15834714D02*
X8235000Y-15815667D01*
X8254048Y-15806143D01*
X8282619Y-15806143D01*
X8301667Y-15815667D01*
X8311190Y-15834714D01*
X8311190Y-15939476D01*
X8406429Y-15939476D02*
X8406429Y-15806143D01*
X8406429Y-15825190D02*
X8415952Y-15815667D01*
X8435000Y-15806143D01*
X8463571Y-15806143D01*
X8482619Y-15815667D01*
X8492143Y-15834714D01*
X8492143Y-15939476D01*
X8492143Y-15834714D02*
X8501667Y-15815667D01*
X8520714Y-15806143D01*
X8549286Y-15806143D01*
X8568333Y-15815667D01*
X8577857Y-15834714D01*
X8577857Y-15939476D01*
X8968333Y-15729952D02*
X8796905Y-15987095D01*
X9225476Y-15739476D02*
X9244524Y-15739476D01*
X9263571Y-15749000D01*
X9273095Y-15758524D01*
X9282619Y-15777571D01*
X9292143Y-15815667D01*
X9292143Y-15863286D01*
X9282619Y-15901381D01*
X9273095Y-15920428D01*
X9263571Y-15929952D01*
X9244524Y-15939476D01*
X9225476Y-15939476D01*
X9206429Y-15929952D01*
X9196905Y-15920428D01*
X9187381Y-15901381D01*
X9177857Y-15863286D01*
X9177857Y-15815667D01*
X9187381Y-15777571D01*
X9196905Y-15758524D01*
X9206429Y-15749000D01*
X9225476Y-15739476D01*
X9377857Y-15920428D02*
X9387381Y-15929952D01*
X9377857Y-15939476D01*
X9368333Y-15929952D01*
X9377857Y-15920428D01*
X9377857Y-15939476D01*
X9511190Y-15739476D02*
X9530238Y-15739476D01*
X9549286Y-15749000D01*
X9558810Y-15758524D01*
X9568333Y-15777571D01*
X9577857Y-15815667D01*
X9577857Y-15863286D01*
X9568333Y-15901381D01*
X9558810Y-15920428D01*
X9549286Y-15929952D01*
X9530238Y-15939476D01*
X9511190Y-15939476D01*
X9492143Y-15929952D01*
X9482619Y-15920428D01*
X9473095Y-15901381D01*
X9463571Y-15863286D01*
X9463571Y-15815667D01*
X9473095Y-15777571D01*
X9482619Y-15758524D01*
X9492143Y-15749000D01*
X9511190Y-15739476D01*
X9644524Y-15739476D02*
X9768333Y-15739476D01*
X9701667Y-15815667D01*
X9730238Y-15815667D01*
X9749286Y-15825190D01*
X9758810Y-15834714D01*
X9768333Y-15853762D01*
X9768333Y-15901381D01*
X9758810Y-15920428D01*
X9749286Y-15929952D01*
X9730238Y-15939476D01*
X9673095Y-15939476D01*
X9654048Y-15929952D01*
X9644524Y-15920428D01*
X9892143Y-15739476D02*
X9911190Y-15739476D01*
X9930238Y-15749000D01*
X9939762Y-15758524D01*
X9949286Y-15777571D01*
X9958810Y-15815667D01*
X9958810Y-15863286D01*
X9949286Y-15901381D01*
X9939762Y-15920428D01*
X9930238Y-15929952D01*
X9911190Y-15939476D01*
X9892143Y-15939476D01*
X9873095Y-15929952D01*
X9863571Y-15920428D01*
X9854048Y-15901381D01*
X9844524Y-15863286D01*
X9844524Y-15815667D01*
X9854048Y-15777571D01*
X9863571Y-15758524D01*
X9873095Y-15749000D01*
X9892143Y-15739476D01*
X10082619Y-15739476D02*
X10101667Y-15739476D01*
X10120714Y-15749000D01*
X10130238Y-15758524D01*
X10139762Y-15777571D01*
X10149286Y-15815667D01*
X10149286Y-15863286D01*
X10139762Y-15901381D01*
X10130238Y-15920428D01*
X10120714Y-15929952D01*
X10101667Y-15939476D01*
X10082619Y-15939476D01*
X10063571Y-15929952D01*
X10054048Y-15920428D01*
X10044524Y-15901381D01*
X10035000Y-15863286D01*
X10035000Y-15815667D01*
X10044524Y-15777571D01*
X10054048Y-15758524D01*
X10063571Y-15749000D01*
X10082619Y-15739476D01*
X10225476Y-15739476D02*
X10225476Y-15777571D01*
X10301667Y-15739476D02*
X10301667Y-15777571D01*
X10596905Y-16015667D02*
X10587381Y-16006143D01*
X10568333Y-15977571D01*
X10558810Y-15958524D01*
X10549286Y-15929952D01*
X10539762Y-15882333D01*
X10539762Y-15844238D01*
X10549286Y-15796619D01*
X10558810Y-15768048D01*
X10568333Y-15749000D01*
X10587381Y-15720428D01*
X10596905Y-15710905D01*
X10654048Y-15739476D02*
X10787381Y-15739476D01*
X10701667Y-15939476D01*
X11015952Y-15939476D02*
X11015952Y-15739476D01*
X11101667Y-15939476D02*
X11101667Y-15834714D01*
X11092143Y-15815667D01*
X11073095Y-15806143D01*
X11044524Y-15806143D01*
X11025476Y-15815667D01*
X11015952Y-15825190D01*
X11225476Y-15939476D02*
X11206428Y-15929952D01*
X11196905Y-15920428D01*
X11187381Y-15901381D01*
X11187381Y-15844238D01*
X11196905Y-15825190D01*
X11206428Y-15815667D01*
X11225476Y-15806143D01*
X11254048Y-15806143D01*
X11273095Y-15815667D01*
X11282619Y-15825190D01*
X11292143Y-15844238D01*
X11292143Y-15901381D01*
X11282619Y-15920428D01*
X11273095Y-15929952D01*
X11254048Y-15939476D01*
X11225476Y-15939476D01*
X11406428Y-15939476D02*
X11387381Y-15929952D01*
X11377857Y-15910905D01*
X11377857Y-15739476D01*
X11558809Y-15929952D02*
X11539762Y-15939476D01*
X11501667Y-15939476D01*
X11482619Y-15929952D01*
X11473095Y-15910905D01*
X11473095Y-15834714D01*
X11482619Y-15815667D01*
X11501667Y-15806143D01*
X11539762Y-15806143D01*
X11558809Y-15815667D01*
X11568333Y-15834714D01*
X11568333Y-15853762D01*
X11473095Y-15872809D01*
X11644524Y-15929952D02*
X11663571Y-15939476D01*
X11701667Y-15939476D01*
X11720714Y-15929952D01*
X11730238Y-15910905D01*
X11730238Y-15901381D01*
X11720714Y-15882333D01*
X11701667Y-15872809D01*
X11673095Y-15872809D01*
X11654048Y-15863286D01*
X11644524Y-15844238D01*
X11644524Y-15834714D01*
X11654048Y-15815667D01*
X11673095Y-15806143D01*
X11701667Y-15806143D01*
X11720714Y-15815667D01*
X11796905Y-16015667D02*
X11806428Y-16006143D01*
X11825476Y-15977571D01*
X11835000Y-15958524D01*
X11844524Y-15929952D01*
X11854048Y-15882333D01*
X11854048Y-15844238D01*
X11844524Y-15796619D01*
X11835000Y-15768048D01*
X11825476Y-15749000D01*
X11806428Y-15720428D01*
X11796905Y-15710905D01*
D14*
X6985000Y-16073000D02*
X6985000Y-16153000D01*
X6945000Y-16113000D02*
X7025000Y-16113000D01*
D11*
X7320714Y-16003476D02*
X7339762Y-16003476D01*
X7358809Y-16013000D01*
X7368333Y-16022524D01*
X7377857Y-16041571D01*
X7387381Y-16079667D01*
X7387381Y-16127286D01*
X7377857Y-16165381D01*
X7368333Y-16184428D01*
X7358809Y-16193952D01*
X7339762Y-16203476D01*
X7320714Y-16203476D01*
X7301667Y-16193952D01*
X7292143Y-16184428D01*
X7282619Y-16165381D01*
X7273095Y-16127286D01*
X7273095Y-16079667D01*
X7282619Y-16041571D01*
X7292143Y-16022524D01*
X7301667Y-16013000D01*
X7320714Y-16003476D01*
X7473095Y-16184428D02*
X7482619Y-16193952D01*
X7473095Y-16203476D01*
X7463571Y-16193952D01*
X7473095Y-16184428D01*
X7473095Y-16203476D01*
X7596905Y-16089190D02*
X7577857Y-16079667D01*
X7568333Y-16070143D01*
X7558809Y-16051095D01*
X7558809Y-16041571D01*
X7568333Y-16022524D01*
X7577857Y-16013000D01*
X7596905Y-16003476D01*
X7635000Y-16003476D01*
X7654048Y-16013000D01*
X7663571Y-16022524D01*
X7673095Y-16041571D01*
X7673095Y-16051095D01*
X7663571Y-16070143D01*
X7654048Y-16079667D01*
X7635000Y-16089190D01*
X7596905Y-16089190D01*
X7577857Y-16098714D01*
X7568333Y-16108238D01*
X7558809Y-16127286D01*
X7558809Y-16165381D01*
X7568333Y-16184428D01*
X7577857Y-16193952D01*
X7596905Y-16203476D01*
X7635000Y-16203476D01*
X7654048Y-16193952D01*
X7663571Y-16184428D01*
X7673095Y-16165381D01*
X7673095Y-16127286D01*
X7663571Y-16108238D01*
X7654048Y-16098714D01*
X7635000Y-16089190D01*
X7796905Y-16003476D02*
X7815952Y-16003476D01*
X7835000Y-16013000D01*
X7844524Y-16022524D01*
X7854048Y-16041571D01*
X7863571Y-16079667D01*
X7863571Y-16127286D01*
X7854048Y-16165381D01*
X7844524Y-16184428D01*
X7835000Y-16193952D01*
X7815952Y-16203476D01*
X7796905Y-16203476D01*
X7777857Y-16193952D01*
X7768333Y-16184428D01*
X7758809Y-16165381D01*
X7749286Y-16127286D01*
X7749286Y-16079667D01*
X7758809Y-16041571D01*
X7768333Y-16022524D01*
X7777857Y-16013000D01*
X7796905Y-16003476D01*
X7987381Y-16003476D02*
X8006428Y-16003476D01*
X8025476Y-16013000D01*
X8035000Y-16022524D01*
X8044524Y-16041571D01*
X8054048Y-16079667D01*
X8054048Y-16127286D01*
X8044524Y-16165381D01*
X8035000Y-16184428D01*
X8025476Y-16193952D01*
X8006428Y-16203476D01*
X7987381Y-16203476D01*
X7968333Y-16193952D01*
X7958809Y-16184428D01*
X7949286Y-16165381D01*
X7939762Y-16127286D01*
X7939762Y-16079667D01*
X7949286Y-16041571D01*
X7958809Y-16022524D01*
X7968333Y-16013000D01*
X7987381Y-16003476D01*
X8139762Y-16203476D02*
X8139762Y-16070143D01*
X8139762Y-16089190D02*
X8149286Y-16079667D01*
X8168333Y-16070143D01*
X8196905Y-16070143D01*
X8215952Y-16079667D01*
X8225476Y-16098714D01*
X8225476Y-16203476D01*
X8225476Y-16098714D02*
X8235000Y-16079667D01*
X8254048Y-16070143D01*
X8282619Y-16070143D01*
X8301667Y-16079667D01*
X8311190Y-16098714D01*
X8311190Y-16203476D01*
X8406429Y-16203476D02*
X8406429Y-16070143D01*
X8406429Y-16089190D02*
X8415952Y-16079667D01*
X8435000Y-16070143D01*
X8463571Y-16070143D01*
X8482619Y-16079667D01*
X8492143Y-16098714D01*
X8492143Y-16203476D01*
X8492143Y-16098714D02*
X8501667Y-16079667D01*
X8520714Y-16070143D01*
X8549286Y-16070143D01*
X8568333Y-16079667D01*
X8577857Y-16098714D01*
X8577857Y-16203476D01*
X8968333Y-15993952D02*
X8796905Y-16251095D01*
X9225476Y-16003476D02*
X9244524Y-16003476D01*
X9263571Y-16013000D01*
X9273095Y-16022524D01*
X9282619Y-16041571D01*
X9292143Y-16079667D01*
X9292143Y-16127286D01*
X9282619Y-16165381D01*
X9273095Y-16184428D01*
X9263571Y-16193952D01*
X9244524Y-16203476D01*
X9225476Y-16203476D01*
X9206429Y-16193952D01*
X9196905Y-16184428D01*
X9187381Y-16165381D01*
X9177857Y-16127286D01*
X9177857Y-16079667D01*
X9187381Y-16041571D01*
X9196905Y-16022524D01*
X9206429Y-16013000D01*
X9225476Y-16003476D01*
X9377857Y-16184428D02*
X9387381Y-16193952D01*
X9377857Y-16203476D01*
X9368333Y-16193952D01*
X9377857Y-16184428D01*
X9377857Y-16203476D01*
X9511190Y-16003476D02*
X9530238Y-16003476D01*
X9549286Y-16013000D01*
X9558810Y-16022524D01*
X9568333Y-16041571D01*
X9577857Y-16079667D01*
X9577857Y-16127286D01*
X9568333Y-16165381D01*
X9558810Y-16184428D01*
X9549286Y-16193952D01*
X9530238Y-16203476D01*
X9511190Y-16203476D01*
X9492143Y-16193952D01*
X9482619Y-16184428D01*
X9473095Y-16165381D01*
X9463571Y-16127286D01*
X9463571Y-16079667D01*
X9473095Y-16041571D01*
X9482619Y-16022524D01*
X9492143Y-16013000D01*
X9511190Y-16003476D01*
X9644524Y-16003476D02*
X9768333Y-16003476D01*
X9701667Y-16079667D01*
X9730238Y-16079667D01*
X9749286Y-16089190D01*
X9758810Y-16098714D01*
X9768333Y-16117762D01*
X9768333Y-16165381D01*
X9758810Y-16184428D01*
X9749286Y-16193952D01*
X9730238Y-16203476D01*
X9673095Y-16203476D01*
X9654048Y-16193952D01*
X9644524Y-16184428D01*
X9958810Y-16203476D02*
X9844524Y-16203476D01*
X9901667Y-16203476D02*
X9901667Y-16003476D01*
X9882619Y-16032048D01*
X9863571Y-16051095D01*
X9844524Y-16060619D01*
X10139762Y-16003476D02*
X10044524Y-16003476D01*
X10035000Y-16098714D01*
X10044524Y-16089190D01*
X10063571Y-16079667D01*
X10111190Y-16079667D01*
X10130238Y-16089190D01*
X10139762Y-16098714D01*
X10149286Y-16117762D01*
X10149286Y-16165381D01*
X10139762Y-16184428D01*
X10130238Y-16193952D01*
X10111190Y-16203476D01*
X10063571Y-16203476D01*
X10044524Y-16193952D01*
X10035000Y-16184428D01*
X10225476Y-16003476D02*
X10225476Y-16041571D01*
X10301667Y-16003476D02*
X10301667Y-16041571D01*
X10596905Y-16279667D02*
X10587381Y-16270143D01*
X10568333Y-16241571D01*
X10558810Y-16222524D01*
X10549286Y-16193952D01*
X10539762Y-16146333D01*
X10539762Y-16108238D01*
X10549286Y-16060619D01*
X10558810Y-16032048D01*
X10568333Y-16013000D01*
X10587381Y-15984428D01*
X10596905Y-15974905D01*
X10758810Y-16003476D02*
X10720714Y-16003476D01*
X10701667Y-16013000D01*
X10692143Y-16022524D01*
X10673095Y-16051095D01*
X10663571Y-16089190D01*
X10663571Y-16165381D01*
X10673095Y-16184428D01*
X10682619Y-16193952D01*
X10701667Y-16203476D01*
X10739762Y-16203476D01*
X10758810Y-16193952D01*
X10768333Y-16184428D01*
X10777857Y-16165381D01*
X10777857Y-16117762D01*
X10768333Y-16098714D01*
X10758810Y-16089190D01*
X10739762Y-16079667D01*
X10701667Y-16079667D01*
X10682619Y-16089190D01*
X10673095Y-16098714D01*
X10663571Y-16117762D01*
X10949286Y-16003476D02*
X10911190Y-16003476D01*
X10892143Y-16013000D01*
X10882619Y-16022524D01*
X10863571Y-16051095D01*
X10854048Y-16089190D01*
X10854048Y-16165381D01*
X10863571Y-16184428D01*
X10873095Y-16193952D01*
X10892143Y-16203476D01*
X10930238Y-16203476D01*
X10949286Y-16193952D01*
X10958810Y-16184428D01*
X10968333Y-16165381D01*
X10968333Y-16117762D01*
X10958810Y-16098714D01*
X10949286Y-16089190D01*
X10930238Y-16079667D01*
X10892143Y-16079667D01*
X10873095Y-16089190D01*
X10863571Y-16098714D01*
X10854048Y-16117762D01*
X11206428Y-16203476D02*
X11206428Y-16003476D01*
X11292143Y-16203476D02*
X11292143Y-16098714D01*
X11282619Y-16079667D01*
X11263571Y-16070143D01*
X11235000Y-16070143D01*
X11215952Y-16079667D01*
X11206428Y-16089190D01*
X11415952Y-16203476D02*
X11396905Y-16193952D01*
X11387381Y-16184428D01*
X11377857Y-16165381D01*
X11377857Y-16108238D01*
X11387381Y-16089190D01*
X11396905Y-16079667D01*
X11415952Y-16070143D01*
X11444524Y-16070143D01*
X11463571Y-16079667D01*
X11473095Y-16089190D01*
X11482619Y-16108238D01*
X11482619Y-16165381D01*
X11473095Y-16184428D01*
X11463571Y-16193952D01*
X11444524Y-16203476D01*
X11415952Y-16203476D01*
X11596905Y-16203476D02*
X11577857Y-16193952D01*
X11568333Y-16174905D01*
X11568333Y-16003476D01*
X11749286Y-16193952D02*
X11730238Y-16203476D01*
X11692143Y-16203476D01*
X11673095Y-16193952D01*
X11663571Y-16174905D01*
X11663571Y-16098714D01*
X11673095Y-16079667D01*
X11692143Y-16070143D01*
X11730238Y-16070143D01*
X11749286Y-16079667D01*
X11758809Y-16098714D01*
X11758809Y-16117762D01*
X11663571Y-16136809D01*
X11835000Y-16193952D02*
X11854048Y-16203476D01*
X11892143Y-16203476D01*
X11911190Y-16193952D01*
X11920714Y-16174905D01*
X11920714Y-16165381D01*
X11911190Y-16146333D01*
X11892143Y-16136809D01*
X11863571Y-16136809D01*
X11844524Y-16127286D01*
X11835000Y-16108238D01*
X11835000Y-16098714D01*
X11844524Y-16079667D01*
X11863571Y-16070143D01*
X11892143Y-16070143D01*
X11911190Y-16079667D01*
X11987381Y-16279667D02*
X11996905Y-16270143D01*
X12015952Y-16241571D01*
X12025476Y-16222524D01*
X12035000Y-16193952D01*
X12044524Y-16146333D01*
X12044524Y-16108238D01*
X12035000Y-16060619D01*
X12025476Y-16032048D01*
X12015952Y-16013000D01*
X11996905Y-15984428D01*
X11987381Y-15974905D01*
D10*
X7010356Y-16412356D02*
X7010356Y-16341644D01*
X6939644Y-16341644D01*
X6939644Y-16412356D01*
X7010356Y-16412356D01*
D11*
X7387381Y-16467476D02*
X7273095Y-16467476D01*
X7330238Y-16467476D02*
X7330238Y-16267476D01*
X7311190Y-16296048D01*
X7292143Y-16315095D01*
X7273095Y-16324619D01*
X7473095Y-16448428D02*
X7482619Y-16457952D01*
X7473095Y-16467476D01*
X7463571Y-16457952D01*
X7473095Y-16448428D01*
X7473095Y-16467476D01*
X7606428Y-16267476D02*
X7625476Y-16267476D01*
X7644524Y-16277000D01*
X7654048Y-16286524D01*
X7663571Y-16305571D01*
X7673095Y-16343667D01*
X7673095Y-16391286D01*
X7663571Y-16429381D01*
X7654048Y-16448428D01*
X7644524Y-16457952D01*
X7625476Y-16467476D01*
X7606428Y-16467476D01*
X7587381Y-16457952D01*
X7577857Y-16448428D01*
X7568333Y-16429381D01*
X7558809Y-16391286D01*
X7558809Y-16343667D01*
X7568333Y-16305571D01*
X7577857Y-16286524D01*
X7587381Y-16277000D01*
X7606428Y-16267476D01*
X7796905Y-16267476D02*
X7815952Y-16267476D01*
X7835000Y-16277000D01*
X7844524Y-16286524D01*
X7854048Y-16305571D01*
X7863571Y-16343667D01*
X7863571Y-16391286D01*
X7854048Y-16429381D01*
X7844524Y-16448428D01*
X7835000Y-16457952D01*
X7815952Y-16467476D01*
X7796905Y-16467476D01*
X7777857Y-16457952D01*
X7768333Y-16448428D01*
X7758809Y-16429381D01*
X7749286Y-16391286D01*
X7749286Y-16343667D01*
X7758809Y-16305571D01*
X7768333Y-16286524D01*
X7777857Y-16277000D01*
X7796905Y-16267476D01*
X7987381Y-16267476D02*
X8006428Y-16267476D01*
X8025476Y-16277000D01*
X8035000Y-16286524D01*
X8044524Y-16305571D01*
X8054048Y-16343667D01*
X8054048Y-16391286D01*
X8044524Y-16429381D01*
X8035000Y-16448428D01*
X8025476Y-16457952D01*
X8006428Y-16467476D01*
X7987381Y-16467476D01*
X7968333Y-16457952D01*
X7958809Y-16448428D01*
X7949286Y-16429381D01*
X7939762Y-16391286D01*
X7939762Y-16343667D01*
X7949286Y-16305571D01*
X7958809Y-16286524D01*
X7968333Y-16277000D01*
X7987381Y-16267476D01*
X8139762Y-16467476D02*
X8139762Y-16334143D01*
X8139762Y-16353190D02*
X8149286Y-16343667D01*
X8168333Y-16334143D01*
X8196905Y-16334143D01*
X8215952Y-16343667D01*
X8225476Y-16362714D01*
X8225476Y-16467476D01*
X8225476Y-16362714D02*
X8235000Y-16343667D01*
X8254048Y-16334143D01*
X8282619Y-16334143D01*
X8301667Y-16343667D01*
X8311190Y-16362714D01*
X8311190Y-16467476D01*
X8406429Y-16467476D02*
X8406429Y-16334143D01*
X8406429Y-16353190D02*
X8415952Y-16343667D01*
X8435000Y-16334143D01*
X8463571Y-16334143D01*
X8482619Y-16343667D01*
X8492143Y-16362714D01*
X8492143Y-16467476D01*
X8492143Y-16362714D02*
X8501667Y-16343667D01*
X8520714Y-16334143D01*
X8549286Y-16334143D01*
X8568333Y-16343667D01*
X8577857Y-16362714D01*
X8577857Y-16467476D01*
X8968333Y-16257952D02*
X8796905Y-16515095D01*
X9225476Y-16267476D02*
X9244524Y-16267476D01*
X9263571Y-16277000D01*
X9273095Y-16286524D01*
X9282619Y-16305571D01*
X9292143Y-16343667D01*
X9292143Y-16391286D01*
X9282619Y-16429381D01*
X9273095Y-16448428D01*
X9263571Y-16457952D01*
X9244524Y-16467476D01*
X9225476Y-16467476D01*
X9206429Y-16457952D01*
X9196905Y-16448428D01*
X9187381Y-16429381D01*
X9177857Y-16391286D01*
X9177857Y-16343667D01*
X9187381Y-16305571D01*
X9196905Y-16286524D01*
X9206429Y-16277000D01*
X9225476Y-16267476D01*
X9377857Y-16448428D02*
X9387381Y-16457952D01*
X9377857Y-16467476D01*
X9368333Y-16457952D01*
X9377857Y-16448428D01*
X9377857Y-16467476D01*
X9511190Y-16267476D02*
X9530238Y-16267476D01*
X9549286Y-16277000D01*
X9558810Y-16286524D01*
X9568333Y-16305571D01*
X9577857Y-16343667D01*
X9577857Y-16391286D01*
X9568333Y-16429381D01*
X9558810Y-16448428D01*
X9549286Y-16457952D01*
X9530238Y-16467476D01*
X9511190Y-16467476D01*
X9492143Y-16457952D01*
X9482619Y-16448428D01*
X9473095Y-16429381D01*
X9463571Y-16391286D01*
X9463571Y-16343667D01*
X9473095Y-16305571D01*
X9482619Y-16286524D01*
X9492143Y-16277000D01*
X9511190Y-16267476D01*
X9644524Y-16267476D02*
X9768333Y-16267476D01*
X9701667Y-16343667D01*
X9730238Y-16343667D01*
X9749286Y-16353190D01*
X9758810Y-16362714D01*
X9768333Y-16381762D01*
X9768333Y-16429381D01*
X9758810Y-16448428D01*
X9749286Y-16457952D01*
X9730238Y-16467476D01*
X9673095Y-16467476D01*
X9654048Y-16457952D01*
X9644524Y-16448428D01*
X9863571Y-16467476D02*
X9901667Y-16467476D01*
X9920714Y-16457952D01*
X9930238Y-16448428D01*
X9949286Y-16419857D01*
X9958810Y-16381762D01*
X9958810Y-16305571D01*
X9949286Y-16286524D01*
X9939762Y-16277000D01*
X9920714Y-16267476D01*
X9882619Y-16267476D01*
X9863571Y-16277000D01*
X9854048Y-16286524D01*
X9844524Y-16305571D01*
X9844524Y-16353190D01*
X9854048Y-16372238D01*
X9863571Y-16381762D01*
X9882619Y-16391286D01*
X9920714Y-16391286D01*
X9939762Y-16381762D01*
X9949286Y-16372238D01*
X9958810Y-16353190D01*
X10130238Y-16334143D02*
X10130238Y-16467476D01*
X10082619Y-16257952D02*
X10035000Y-16400809D01*
X10158810Y-16400809D01*
X10225476Y-16267476D02*
X10225476Y-16305571D01*
X10301667Y-16267476D02*
X10301667Y-16305571D01*
X10596905Y-16543667D02*
X10587381Y-16534143D01*
X10568333Y-16505571D01*
X10558810Y-16486524D01*
X10549286Y-16457952D01*
X10539762Y-16410333D01*
X10539762Y-16372238D01*
X10549286Y-16324619D01*
X10558810Y-16296048D01*
X10568333Y-16277000D01*
X10587381Y-16248428D01*
X10596905Y-16238905D01*
X10758810Y-16267476D02*
X10720714Y-16267476D01*
X10701667Y-16277000D01*
X10692143Y-16286524D01*
X10673095Y-16315095D01*
X10663571Y-16353190D01*
X10663571Y-16429381D01*
X10673095Y-16448428D01*
X10682619Y-16457952D01*
X10701667Y-16467476D01*
X10739762Y-16467476D01*
X10758810Y-16457952D01*
X10768333Y-16448428D01*
X10777857Y-16429381D01*
X10777857Y-16381762D01*
X10768333Y-16362714D01*
X10758810Y-16353190D01*
X10739762Y-16343667D01*
X10701667Y-16343667D01*
X10682619Y-16353190D01*
X10673095Y-16362714D01*
X10663571Y-16381762D01*
X11015952Y-16467476D02*
X11015952Y-16267476D01*
X11101667Y-16467476D02*
X11101667Y-16362714D01*
X11092143Y-16343667D01*
X11073095Y-16334143D01*
X11044524Y-16334143D01*
X11025476Y-16343667D01*
X11015952Y-16353190D01*
X11225476Y-16467476D02*
X11206428Y-16457952D01*
X11196905Y-16448428D01*
X11187381Y-16429381D01*
X11187381Y-16372238D01*
X11196905Y-16353190D01*
X11206428Y-16343667D01*
X11225476Y-16334143D01*
X11254048Y-16334143D01*
X11273095Y-16343667D01*
X11282619Y-16353190D01*
X11292143Y-16372238D01*
X11292143Y-16429381D01*
X11282619Y-16448428D01*
X11273095Y-16457952D01*
X11254048Y-16467476D01*
X11225476Y-16467476D01*
X11406428Y-16467476D02*
X11387381Y-16457952D01*
X11377857Y-16438905D01*
X11377857Y-16267476D01*
X11558809Y-16457952D02*
X11539762Y-16467476D01*
X11501667Y-16467476D01*
X11482619Y-16457952D01*
X11473095Y-16438905D01*
X11473095Y-16362714D01*
X11482619Y-16343667D01*
X11501667Y-16334143D01*
X11539762Y-16334143D01*
X11558809Y-16343667D01*
X11568333Y-16362714D01*
X11568333Y-16381762D01*
X11473095Y-16400809D01*
X11644524Y-16457952D02*
X11663571Y-16467476D01*
X11701667Y-16467476D01*
X11720714Y-16457952D01*
X11730238Y-16438905D01*
X11730238Y-16429381D01*
X11720714Y-16410333D01*
X11701667Y-16400809D01*
X11673095Y-16400809D01*
X11654048Y-16391286D01*
X11644524Y-16372238D01*
X11644524Y-16362714D01*
X11654048Y-16343667D01*
X11673095Y-16334143D01*
X11701667Y-16334143D01*
X11720714Y-16343667D01*
X11796905Y-16543667D02*
X11806428Y-16534143D01*
X11825476Y-16505571D01*
X11835000Y-16486524D01*
X11844524Y-16457952D01*
X11854048Y-16410333D01*
X11854048Y-16372238D01*
X11844524Y-16324619D01*
X11835000Y-16296048D01*
X11825476Y-16277000D01*
X11806428Y-16248428D01*
X11796905Y-16238905D01*
D15*
X6970000Y-16696000D02*
X7025000Y-16641000D01*
X6970000Y-16586000D01*
X6915000Y-16641000D01*
X6970000Y-16696000D01*
D11*
X7387381Y-16731476D02*
X7273095Y-16731476D01*
X7330238Y-16731476D02*
X7330238Y-16531476D01*
X7311190Y-16560048D01*
X7292143Y-16579095D01*
X7273095Y-16588619D01*
X7473095Y-16712428D02*
X7482619Y-16721952D01*
X7473095Y-16731476D01*
X7463571Y-16721952D01*
X7473095Y-16712428D01*
X7473095Y-16731476D01*
X7673095Y-16731476D02*
X7558809Y-16731476D01*
X7615952Y-16731476D02*
X7615952Y-16531476D01*
X7596905Y-16560048D01*
X7577857Y-16579095D01*
X7558809Y-16588619D01*
X7796905Y-16531476D02*
X7815952Y-16531476D01*
X7835000Y-16541000D01*
X7844524Y-16550524D01*
X7854048Y-16569571D01*
X7863571Y-16607667D01*
X7863571Y-16655286D01*
X7854048Y-16693381D01*
X7844524Y-16712428D01*
X7835000Y-16721952D01*
X7815952Y-16731476D01*
X7796905Y-16731476D01*
X7777857Y-16721952D01*
X7768333Y-16712428D01*
X7758809Y-16693381D01*
X7749286Y-16655286D01*
X7749286Y-16607667D01*
X7758809Y-16569571D01*
X7768333Y-16550524D01*
X7777857Y-16541000D01*
X7796905Y-16531476D01*
X7987381Y-16531476D02*
X8006428Y-16531476D01*
X8025476Y-16541000D01*
X8035000Y-16550524D01*
X8044524Y-16569571D01*
X8054048Y-16607667D01*
X8054048Y-16655286D01*
X8044524Y-16693381D01*
X8035000Y-16712428D01*
X8025476Y-16721952D01*
X8006428Y-16731476D01*
X7987381Y-16731476D01*
X7968333Y-16721952D01*
X7958809Y-16712428D01*
X7949286Y-16693381D01*
X7939762Y-16655286D01*
X7939762Y-16607667D01*
X7949286Y-16569571D01*
X7958809Y-16550524D01*
X7968333Y-16541000D01*
X7987381Y-16531476D01*
X8139762Y-16731476D02*
X8139762Y-16598143D01*
X8139762Y-16617190D02*
X8149286Y-16607667D01*
X8168333Y-16598143D01*
X8196905Y-16598143D01*
X8215952Y-16607667D01*
X8225476Y-16626714D01*
X8225476Y-16731476D01*
X8225476Y-16626714D02*
X8235000Y-16607667D01*
X8254048Y-16598143D01*
X8282619Y-16598143D01*
X8301667Y-16607667D01*
X8311190Y-16626714D01*
X8311190Y-16731476D01*
X8406429Y-16731476D02*
X8406429Y-16598143D01*
X8406429Y-16617190D02*
X8415952Y-16607667D01*
X8435000Y-16598143D01*
X8463571Y-16598143D01*
X8482619Y-16607667D01*
X8492143Y-16626714D01*
X8492143Y-16731476D01*
X8492143Y-16626714D02*
X8501667Y-16607667D01*
X8520714Y-16598143D01*
X8549286Y-16598143D01*
X8568333Y-16607667D01*
X8577857Y-16626714D01*
X8577857Y-16731476D01*
X8968333Y-16521952D02*
X8796905Y-16779095D01*
X9225476Y-16531476D02*
X9244524Y-16531476D01*
X9263571Y-16541000D01*
X9273095Y-16550524D01*
X9282619Y-16569571D01*
X9292143Y-16607667D01*
X9292143Y-16655286D01*
X9282619Y-16693381D01*
X9273095Y-16712428D01*
X9263571Y-16721952D01*
X9244524Y-16731476D01*
X9225476Y-16731476D01*
X9206429Y-16721952D01*
X9196905Y-16712428D01*
X9187381Y-16693381D01*
X9177857Y-16655286D01*
X9177857Y-16607667D01*
X9187381Y-16569571D01*
X9196905Y-16550524D01*
X9206429Y-16541000D01*
X9225476Y-16531476D01*
X9377857Y-16712428D02*
X9387381Y-16721952D01*
X9377857Y-16731476D01*
X9368333Y-16721952D01*
X9377857Y-16712428D01*
X9377857Y-16731476D01*
X9511190Y-16531476D02*
X9530238Y-16531476D01*
X9549286Y-16541000D01*
X9558810Y-16550524D01*
X9568333Y-16569571D01*
X9577857Y-16607667D01*
X9577857Y-16655286D01*
X9568333Y-16693381D01*
X9558810Y-16712428D01*
X9549286Y-16721952D01*
X9530238Y-16731476D01*
X9511190Y-16731476D01*
X9492143Y-16721952D01*
X9482619Y-16712428D01*
X9473095Y-16693381D01*
X9463571Y-16655286D01*
X9463571Y-16607667D01*
X9473095Y-16569571D01*
X9482619Y-16550524D01*
X9492143Y-16541000D01*
X9511190Y-16531476D01*
X9749286Y-16598143D02*
X9749286Y-16731476D01*
X9701667Y-16521952D02*
X9654048Y-16664809D01*
X9777857Y-16664809D01*
X9835000Y-16531476D02*
X9958810Y-16531476D01*
X9892143Y-16607667D01*
X9920714Y-16607667D01*
X9939762Y-16617190D01*
X9949286Y-16626714D01*
X9958810Y-16645762D01*
X9958810Y-16693381D01*
X9949286Y-16712428D01*
X9939762Y-16721952D01*
X9920714Y-16731476D01*
X9863571Y-16731476D01*
X9844524Y-16721952D01*
X9835000Y-16712428D01*
X10025476Y-16531476D02*
X10149286Y-16531476D01*
X10082619Y-16607667D01*
X10111190Y-16607667D01*
X10130238Y-16617190D01*
X10139762Y-16626714D01*
X10149286Y-16645762D01*
X10149286Y-16693381D01*
X10139762Y-16712428D01*
X10130238Y-16721952D01*
X10111190Y-16731476D01*
X10054048Y-16731476D01*
X10035000Y-16721952D01*
X10025476Y-16712428D01*
X10225476Y-16531476D02*
X10225476Y-16569571D01*
X10301667Y-16531476D02*
X10301667Y-16569571D01*
X10596905Y-16807667D02*
X10587381Y-16798143D01*
X10568333Y-16769571D01*
X10558810Y-16750524D01*
X10549286Y-16721952D01*
X10539762Y-16674333D01*
X10539762Y-16636238D01*
X10549286Y-16588619D01*
X10558810Y-16560048D01*
X10568333Y-16541000D01*
X10587381Y-16512428D01*
X10596905Y-16502905D01*
X10777857Y-16731476D02*
X10663571Y-16731476D01*
X10720714Y-16731476D02*
X10720714Y-16531476D01*
X10701667Y-16560048D01*
X10682619Y-16579095D01*
X10663571Y-16588619D01*
X10949286Y-16598143D02*
X10949286Y-16731476D01*
X10901667Y-16521952D02*
X10854048Y-16664809D01*
X10977857Y-16664809D01*
X11206428Y-16731476D02*
X11206428Y-16531476D01*
X11292143Y-16731476D02*
X11292143Y-16626714D01*
X11282619Y-16607667D01*
X11263571Y-16598143D01*
X11235000Y-16598143D01*
X11215952Y-16607667D01*
X11206428Y-16617190D01*
X11415952Y-16731476D02*
X11396905Y-16721952D01*
X11387381Y-16712428D01*
X11377857Y-16693381D01*
X11377857Y-16636238D01*
X11387381Y-16617190D01*
X11396905Y-16607667D01*
X11415952Y-16598143D01*
X11444524Y-16598143D01*
X11463571Y-16607667D01*
X11473095Y-16617190D01*
X11482619Y-16636238D01*
X11482619Y-16693381D01*
X11473095Y-16712428D01*
X11463571Y-16721952D01*
X11444524Y-16731476D01*
X11415952Y-16731476D01*
X11596905Y-16731476D02*
X11577857Y-16721952D01*
X11568333Y-16702905D01*
X11568333Y-16531476D01*
X11749286Y-16721952D02*
X11730238Y-16731476D01*
X11692143Y-16731476D01*
X11673095Y-16721952D01*
X11663571Y-16702905D01*
X11663571Y-16626714D01*
X11673095Y-16607667D01*
X11692143Y-16598143D01*
X11730238Y-16598143D01*
X11749286Y-16607667D01*
X11758809Y-16626714D01*
X11758809Y-16645762D01*
X11663571Y-16664809D01*
X11835000Y-16721952D02*
X11854048Y-16731476D01*
X11892143Y-16731476D01*
X11911190Y-16721952D01*
X11920714Y-16702905D01*
X11920714Y-16693381D01*
X11911190Y-16674333D01*
X11892143Y-16664809D01*
X11863571Y-16664809D01*
X11844524Y-16655286D01*
X11835000Y-16636238D01*
X11835000Y-16626714D01*
X11844524Y-16607667D01*
X11863571Y-16598143D01*
X11892143Y-16598143D01*
X11911190Y-16607667D01*
X11987381Y-16807667D02*
X11996905Y-16798143D01*
X12015952Y-16769571D01*
X12025476Y-16750524D01*
X12035000Y-16721952D01*
X12044524Y-16674333D01*
X12044524Y-16636238D01*
X12035000Y-16588619D01*
X12025476Y-16560048D01*
X12015952Y-16541000D01*
X11996905Y-16512428D01*
X11987381Y-16502905D01*
D16*
X6898000Y-16841500D02*
X7025000Y-16968500D01*
X7025000Y-16841500D02*
X6898000Y-16968500D01*
X7025000Y-16905000D02*
G75*
G03*
X7025000Y-16905000I-63500J0D01*
G01*
D11*
X7387381Y-16995476D02*
X7273095Y-16995476D01*
X7330238Y-16995476D02*
X7330238Y-16795476D01*
X7311190Y-16824048D01*
X7292143Y-16843095D01*
X7273095Y-16852619D01*
X7473095Y-16976429D02*
X7482619Y-16985952D01*
X7473095Y-16995476D01*
X7463571Y-16985952D01*
X7473095Y-16976429D01*
X7473095Y-16995476D01*
X7558809Y-16814524D02*
X7568333Y-16805000D01*
X7587381Y-16795476D01*
X7635000Y-16795476D01*
X7654048Y-16805000D01*
X7663571Y-16814524D01*
X7673095Y-16833571D01*
X7673095Y-16852619D01*
X7663571Y-16881190D01*
X7549286Y-16995476D01*
X7673095Y-16995476D01*
X7739762Y-16795476D02*
X7873095Y-16795476D01*
X7787381Y-16995476D01*
X7987381Y-16795476D02*
X8006428Y-16795476D01*
X8025476Y-16805000D01*
X8035000Y-16814524D01*
X8044524Y-16833571D01*
X8054048Y-16871667D01*
X8054048Y-16919286D01*
X8044524Y-16957381D01*
X8035000Y-16976429D01*
X8025476Y-16985952D01*
X8006428Y-16995476D01*
X7987381Y-16995476D01*
X7968333Y-16985952D01*
X7958809Y-16976429D01*
X7949286Y-16957381D01*
X7939762Y-16919286D01*
X7939762Y-16871667D01*
X7949286Y-16833571D01*
X7958809Y-16814524D01*
X7968333Y-16805000D01*
X7987381Y-16795476D01*
X8139762Y-16995476D02*
X8139762Y-16862143D01*
X8139762Y-16881190D02*
X8149286Y-16871667D01*
X8168333Y-16862143D01*
X8196905Y-16862143D01*
X8215952Y-16871667D01*
X8225476Y-16890714D01*
X8225476Y-16995476D01*
X8225476Y-16890714D02*
X8235000Y-16871667D01*
X8254048Y-16862143D01*
X8282619Y-16862143D01*
X8301667Y-16871667D01*
X8311190Y-16890714D01*
X8311190Y-16995476D01*
X8406429Y-16995476D02*
X8406429Y-16862143D01*
X8406429Y-16881190D02*
X8415952Y-16871667D01*
X8435000Y-16862143D01*
X8463571Y-16862143D01*
X8482619Y-16871667D01*
X8492143Y-16890714D01*
X8492143Y-16995476D01*
X8492143Y-16890714D02*
X8501667Y-16871667D01*
X8520714Y-16862143D01*
X8549286Y-16862143D01*
X8568333Y-16871667D01*
X8577857Y-16890714D01*
X8577857Y-16995476D01*
X8968333Y-16785952D02*
X8796905Y-17043095D01*
X9225476Y-16795476D02*
X9244524Y-16795476D01*
X9263571Y-16805000D01*
X9273095Y-16814524D01*
X9282619Y-16833571D01*
X9292143Y-16871667D01*
X9292143Y-16919286D01*
X9282619Y-16957381D01*
X9273095Y-16976429D01*
X9263571Y-16985952D01*
X9244524Y-16995476D01*
X9225476Y-16995476D01*
X9206429Y-16985952D01*
X9196905Y-16976429D01*
X9187381Y-16957381D01*
X9177857Y-16919286D01*
X9177857Y-16871667D01*
X9187381Y-16833571D01*
X9196905Y-16814524D01*
X9206429Y-16805000D01*
X9225476Y-16795476D01*
X9377857Y-16976429D02*
X9387381Y-16985952D01*
X9377857Y-16995476D01*
X9368333Y-16985952D01*
X9377857Y-16976429D01*
X9377857Y-16995476D01*
X9511190Y-16795476D02*
X9530238Y-16795476D01*
X9549286Y-16805000D01*
X9558810Y-16814524D01*
X9568333Y-16833571D01*
X9577857Y-16871667D01*
X9577857Y-16919286D01*
X9568333Y-16957381D01*
X9558810Y-16976429D01*
X9549286Y-16985952D01*
X9530238Y-16995476D01*
X9511190Y-16995476D01*
X9492143Y-16985952D01*
X9482619Y-16976429D01*
X9473095Y-16957381D01*
X9463571Y-16919286D01*
X9463571Y-16871667D01*
X9473095Y-16833571D01*
X9482619Y-16814524D01*
X9492143Y-16805000D01*
X9511190Y-16795476D01*
X9758810Y-16795476D02*
X9663571Y-16795476D01*
X9654048Y-16890714D01*
X9663571Y-16881190D01*
X9682619Y-16871667D01*
X9730238Y-16871667D01*
X9749286Y-16881190D01*
X9758810Y-16890714D01*
X9768333Y-16909762D01*
X9768333Y-16957381D01*
X9758810Y-16976429D01*
X9749286Y-16985952D01*
X9730238Y-16995476D01*
X9682619Y-16995476D01*
X9663571Y-16985952D01*
X9654048Y-16976429D01*
X9892143Y-16795476D02*
X9911190Y-16795476D01*
X9930238Y-16805000D01*
X9939762Y-16814524D01*
X9949286Y-16833571D01*
X9958810Y-16871667D01*
X9958810Y-16919286D01*
X9949286Y-16957381D01*
X9939762Y-16976429D01*
X9930238Y-16985952D01*
X9911190Y-16995476D01*
X9892143Y-16995476D01*
X9873095Y-16985952D01*
X9863571Y-16976429D01*
X9854048Y-16957381D01*
X9844524Y-16919286D01*
X9844524Y-16871667D01*
X9854048Y-16833571D01*
X9863571Y-16814524D01*
X9873095Y-16805000D01*
X9892143Y-16795476D01*
X10082619Y-16795476D02*
X10101667Y-16795476D01*
X10120714Y-16805000D01*
X10130238Y-16814524D01*
X10139762Y-16833571D01*
X10149286Y-16871667D01*
X10149286Y-16919286D01*
X10139762Y-16957381D01*
X10130238Y-16976429D01*
X10120714Y-16985952D01*
X10101667Y-16995476D01*
X10082619Y-16995476D01*
X10063571Y-16985952D01*
X10054048Y-16976429D01*
X10044524Y-16957381D01*
X10035000Y-16919286D01*
X10035000Y-16871667D01*
X10044524Y-16833571D01*
X10054048Y-16814524D01*
X10063571Y-16805000D01*
X10082619Y-16795476D01*
X10225476Y-16795476D02*
X10225476Y-16833571D01*
X10301667Y-16795476D02*
X10301667Y-16833571D01*
X10596905Y-17071667D02*
X10587381Y-17062143D01*
X10568333Y-17033571D01*
X10558810Y-17014524D01*
X10549286Y-16985952D01*
X10539762Y-16938333D01*
X10539762Y-16900238D01*
X10549286Y-16852619D01*
X10558810Y-16824048D01*
X10568333Y-16805000D01*
X10587381Y-16776428D01*
X10596905Y-16766905D01*
X10758810Y-16795476D02*
X10720714Y-16795476D01*
X10701667Y-16805000D01*
X10692143Y-16814524D01*
X10673095Y-16843095D01*
X10663571Y-16881190D01*
X10663571Y-16957381D01*
X10673095Y-16976429D01*
X10682619Y-16985952D01*
X10701667Y-16995476D01*
X10739762Y-16995476D01*
X10758810Y-16985952D01*
X10768333Y-16976429D01*
X10777857Y-16957381D01*
X10777857Y-16909762D01*
X10768333Y-16890714D01*
X10758810Y-16881190D01*
X10739762Y-16871667D01*
X10701667Y-16871667D01*
X10682619Y-16881190D01*
X10673095Y-16890714D01*
X10663571Y-16909762D01*
X11015952Y-16995476D02*
X11015952Y-16795476D01*
X11101667Y-16995476D02*
X11101667Y-16890714D01*
X11092143Y-16871667D01*
X11073095Y-16862143D01*
X11044524Y-16862143D01*
X11025476Y-16871667D01*
X11015952Y-16881190D01*
X11225476Y-16995476D02*
X11206428Y-16985952D01*
X11196905Y-16976429D01*
X11187381Y-16957381D01*
X11187381Y-16900238D01*
X11196905Y-16881190D01*
X11206428Y-16871667D01*
X11225476Y-16862143D01*
X11254048Y-16862143D01*
X11273095Y-16871667D01*
X11282619Y-16881190D01*
X11292143Y-16900238D01*
X11292143Y-16957381D01*
X11282619Y-16976429D01*
X11273095Y-16985952D01*
X11254048Y-16995476D01*
X11225476Y-16995476D01*
X11406428Y-16995476D02*
X11387381Y-16985952D01*
X11377857Y-16966905D01*
X11377857Y-16795476D01*
X11558809Y-16985952D02*
X11539762Y-16995476D01*
X11501667Y-16995476D01*
X11482619Y-16985952D01*
X11473095Y-16966905D01*
X11473095Y-16890714D01*
X11482619Y-16871667D01*
X11501667Y-16862143D01*
X11539762Y-16862143D01*
X11558809Y-16871667D01*
X11568333Y-16890714D01*
X11568333Y-16909762D01*
X11473095Y-16928810D01*
X11644524Y-16985952D02*
X11663571Y-16995476D01*
X11701667Y-16995476D01*
X11720714Y-16985952D01*
X11730238Y-16966905D01*
X11730238Y-16957381D01*
X11720714Y-16938333D01*
X11701667Y-16928810D01*
X11673095Y-16928810D01*
X11654048Y-16919286D01*
X11644524Y-16900238D01*
X11644524Y-16890714D01*
X11654048Y-16871667D01*
X11673095Y-16862143D01*
X11701667Y-16862143D01*
X11720714Y-16871667D01*
X11796905Y-17071667D02*
X11806428Y-17062143D01*
X11825476Y-17033571D01*
X11835000Y-17014524D01*
X11844524Y-16985952D01*
X11854048Y-16938333D01*
X11854048Y-16900238D01*
X11844524Y-16852619D01*
X11835000Y-16824048D01*
X11825476Y-16805000D01*
X11806428Y-16776428D01*
X11796905Y-16766905D01*
D17*
X6895000Y-17104000D02*
X7025000Y-17234000D01*
X7025000Y-17104000D02*
X6895000Y-17234000D01*
X6960000Y-17104000D02*
X6960000Y-17234000D01*
X6895000Y-17169000D02*
X7025000Y-17169000D01*
D11*
X7387381Y-17259476D02*
X7273095Y-17259476D01*
X7330238Y-17259476D02*
X7330238Y-17059476D01*
X7311190Y-17088048D01*
X7292143Y-17107095D01*
X7273095Y-17116619D01*
X7473095Y-17240429D02*
X7482619Y-17249952D01*
X7473095Y-17259476D01*
X7463571Y-17249952D01*
X7473095Y-17240429D01*
X7473095Y-17259476D01*
X7549286Y-17059476D02*
X7673095Y-17059476D01*
X7606428Y-17135667D01*
X7635000Y-17135667D01*
X7654048Y-17145190D01*
X7663571Y-17154714D01*
X7673095Y-17173762D01*
X7673095Y-17221381D01*
X7663571Y-17240429D01*
X7654048Y-17249952D01*
X7635000Y-17259476D01*
X7577857Y-17259476D01*
X7558809Y-17249952D01*
X7549286Y-17240429D01*
X7796905Y-17059476D02*
X7815952Y-17059476D01*
X7835000Y-17069000D01*
X7844524Y-17078524D01*
X7854048Y-17097571D01*
X7863571Y-17135667D01*
X7863571Y-17183286D01*
X7854048Y-17221381D01*
X7844524Y-17240429D01*
X7835000Y-17249952D01*
X7815952Y-17259476D01*
X7796905Y-17259476D01*
X7777857Y-17249952D01*
X7768333Y-17240429D01*
X7758809Y-17221381D01*
X7749286Y-17183286D01*
X7749286Y-17135667D01*
X7758809Y-17097571D01*
X7768333Y-17078524D01*
X7777857Y-17069000D01*
X7796905Y-17059476D01*
X7987381Y-17059476D02*
X8006428Y-17059476D01*
X8025476Y-17069000D01*
X8035000Y-17078524D01*
X8044524Y-17097571D01*
X8054048Y-17135667D01*
X8054048Y-17183286D01*
X8044524Y-17221381D01*
X8035000Y-17240429D01*
X8025476Y-17249952D01*
X8006428Y-17259476D01*
X7987381Y-17259476D01*
X7968333Y-17249952D01*
X7958809Y-17240429D01*
X7949286Y-17221381D01*
X7939762Y-17183286D01*
X7939762Y-17135667D01*
X7949286Y-17097571D01*
X7958809Y-17078524D01*
X7968333Y-17069000D01*
X7987381Y-17059476D01*
X8139762Y-17259476D02*
X8139762Y-17126143D01*
X8139762Y-17145190D02*
X8149286Y-17135667D01*
X8168333Y-17126143D01*
X8196905Y-17126143D01*
X8215952Y-17135667D01*
X8225476Y-17154714D01*
X8225476Y-17259476D01*
X8225476Y-17154714D02*
X8235000Y-17135667D01*
X8254048Y-17126143D01*
X8282619Y-17126143D01*
X8301667Y-17135667D01*
X8311190Y-17154714D01*
X8311190Y-17259476D01*
X8406429Y-17259476D02*
X8406429Y-17126143D01*
X8406429Y-17145190D02*
X8415952Y-17135667D01*
X8435000Y-17126143D01*
X8463571Y-17126143D01*
X8482619Y-17135667D01*
X8492143Y-17154714D01*
X8492143Y-17259476D01*
X8492143Y-17154714D02*
X8501667Y-17135667D01*
X8520714Y-17126143D01*
X8549286Y-17126143D01*
X8568333Y-17135667D01*
X8577857Y-17154714D01*
X8577857Y-17259476D01*
X8968333Y-17049952D02*
X8796905Y-17307095D01*
X9225476Y-17059476D02*
X9244524Y-17059476D01*
X9263571Y-17069000D01*
X9273095Y-17078524D01*
X9282619Y-17097571D01*
X9292143Y-17135667D01*
X9292143Y-17183286D01*
X9282619Y-17221381D01*
X9273095Y-17240429D01*
X9263571Y-17249952D01*
X9244524Y-17259476D01*
X9225476Y-17259476D01*
X9206429Y-17249952D01*
X9196905Y-17240429D01*
X9187381Y-17221381D01*
X9177857Y-17183286D01*
X9177857Y-17135667D01*
X9187381Y-17097571D01*
X9196905Y-17078524D01*
X9206429Y-17069000D01*
X9225476Y-17059476D01*
X9377857Y-17240429D02*
X9387381Y-17249952D01*
X9377857Y-17259476D01*
X9368333Y-17249952D01*
X9377857Y-17240429D01*
X9377857Y-17259476D01*
X9511190Y-17059476D02*
X9530238Y-17059476D01*
X9549286Y-17069000D01*
X9558810Y-17078524D01*
X9568333Y-17097571D01*
X9577857Y-17135667D01*
X9577857Y-17183286D01*
X9568333Y-17221381D01*
X9558810Y-17240429D01*
X9549286Y-17249952D01*
X9530238Y-17259476D01*
X9511190Y-17259476D01*
X9492143Y-17249952D01*
X9482619Y-17240429D01*
X9473095Y-17221381D01*
X9463571Y-17183286D01*
X9463571Y-17135667D01*
X9473095Y-17097571D01*
X9482619Y-17078524D01*
X9492143Y-17069000D01*
X9511190Y-17059476D01*
X9758810Y-17059476D02*
X9663571Y-17059476D01*
X9654048Y-17154714D01*
X9663571Y-17145190D01*
X9682619Y-17135667D01*
X9730238Y-17135667D01*
X9749286Y-17145190D01*
X9758810Y-17154714D01*
X9768333Y-17173762D01*
X9768333Y-17221381D01*
X9758810Y-17240429D01*
X9749286Y-17249952D01*
X9730238Y-17259476D01*
X9682619Y-17259476D01*
X9663571Y-17249952D01*
X9654048Y-17240429D01*
X9958810Y-17259476D02*
X9844524Y-17259476D01*
X9901667Y-17259476D02*
X9901667Y-17059476D01*
X9882619Y-17088048D01*
X9863571Y-17107095D01*
X9844524Y-17116619D01*
X10035000Y-17078524D02*
X10044524Y-17069000D01*
X10063571Y-17059476D01*
X10111190Y-17059476D01*
X10130238Y-17069000D01*
X10139762Y-17078524D01*
X10149286Y-17097571D01*
X10149286Y-17116619D01*
X10139762Y-17145190D01*
X10025476Y-17259476D01*
X10149286Y-17259476D01*
X10225476Y-17059476D02*
X10225476Y-17097571D01*
X10301667Y-17059476D02*
X10301667Y-17097571D01*
X10596905Y-17335667D02*
X10587381Y-17326143D01*
X10568333Y-17297571D01*
X10558810Y-17278524D01*
X10549286Y-17249952D01*
X10539762Y-17202333D01*
X10539762Y-17164238D01*
X10549286Y-17116619D01*
X10558810Y-17088048D01*
X10568333Y-17069000D01*
X10587381Y-17040429D01*
X10596905Y-17030905D01*
X10777857Y-17259476D02*
X10663571Y-17259476D01*
X10720714Y-17259476D02*
X10720714Y-17059476D01*
X10701667Y-17088048D01*
X10682619Y-17107095D01*
X10663571Y-17116619D01*
X10892143Y-17145190D02*
X10873095Y-17135667D01*
X10863571Y-17126143D01*
X10854048Y-17107095D01*
X10854048Y-17097571D01*
X10863571Y-17078524D01*
X10873095Y-17069000D01*
X10892143Y-17059476D01*
X10930238Y-17059476D01*
X10949286Y-17069000D01*
X10958810Y-17078524D01*
X10968333Y-17097571D01*
X10968333Y-17107095D01*
X10958810Y-17126143D01*
X10949286Y-17135667D01*
X10930238Y-17145190D01*
X10892143Y-17145190D01*
X10873095Y-17154714D01*
X10863571Y-17164238D01*
X10854048Y-17183286D01*
X10854048Y-17221381D01*
X10863571Y-17240429D01*
X10873095Y-17249952D01*
X10892143Y-17259476D01*
X10930238Y-17259476D01*
X10949286Y-17249952D01*
X10958810Y-17240429D01*
X10968333Y-17221381D01*
X10968333Y-17183286D01*
X10958810Y-17164238D01*
X10949286Y-17154714D01*
X10930238Y-17145190D01*
X11206428Y-17259476D02*
X11206428Y-17059476D01*
X11292143Y-17259476D02*
X11292143Y-17154714D01*
X11282619Y-17135667D01*
X11263571Y-17126143D01*
X11235000Y-17126143D01*
X11215952Y-17135667D01*
X11206428Y-17145190D01*
X11415952Y-17259476D02*
X11396905Y-17249952D01*
X11387381Y-17240429D01*
X11377857Y-17221381D01*
X11377857Y-17164238D01*
X11387381Y-17145190D01*
X11396905Y-17135667D01*
X11415952Y-17126143D01*
X11444524Y-17126143D01*
X11463571Y-17135667D01*
X11473095Y-17145190D01*
X11482619Y-17164238D01*
X11482619Y-17221381D01*
X11473095Y-17240429D01*
X11463571Y-17249952D01*
X11444524Y-17259476D01*
X11415952Y-17259476D01*
X11596905Y-17259476D02*
X11577857Y-17249952D01*
X11568333Y-17230905D01*
X11568333Y-17059476D01*
X11749286Y-17249952D02*
X11730238Y-17259476D01*
X11692143Y-17259476D01*
X11673095Y-17249952D01*
X11663571Y-17230905D01*
X11663571Y-17154714D01*
X11673095Y-17135667D01*
X11692143Y-17126143D01*
X11730238Y-17126143D01*
X11749286Y-17135667D01*
X11758809Y-17154714D01*
X11758809Y-17173762D01*
X11663571Y-17192810D01*
X11835000Y-17249952D02*
X11854048Y-17259476D01*
X11892143Y-17259476D01*
X11911190Y-17249952D01*
X11920714Y-17230905D01*
X11920714Y-17221381D01*
X11911190Y-17202333D01*
X11892143Y-17192810D01*
X11863571Y-17192810D01*
X11844524Y-17183286D01*
X11835000Y-17164238D01*
X11835000Y-17154714D01*
X11844524Y-17135667D01*
X11863571Y-17126143D01*
X11892143Y-17126143D01*
X11911190Y-17135667D01*
X11987381Y-17335667D02*
X11996905Y-17326143D01*
X12015952Y-17297571D01*
X12025476Y-17278524D01*
X12035000Y-17249952D01*
X12044524Y-17202333D01*
X12044524Y-17164238D01*
X12035000Y-17116619D01*
X12025476Y-17088048D01*
X12015952Y-17069000D01*
X11996905Y-17040429D01*
X11987381Y-17030905D01*
D18*
X6872600Y-17356800D02*
X7025000Y-17509200D01*
X7025000Y-17356800D02*
X6872600Y-17509200D01*
X7002682Y-17486882D02*
X7002682Y-17379118D01*
X6894918Y-17379118D01*
X6894918Y-17486882D01*
X7002682Y-17486882D01*
D11*
X7387381Y-17523476D02*
X7273095Y-17523476D01*
X7330238Y-17523476D02*
X7330238Y-17323476D01*
X7311190Y-17352048D01*
X7292143Y-17371095D01*
X7273095Y-17380619D01*
X7473095Y-17504429D02*
X7482619Y-17513952D01*
X7473095Y-17523476D01*
X7463571Y-17513952D01*
X7473095Y-17504429D01*
X7473095Y-17523476D01*
X7663571Y-17323476D02*
X7568333Y-17323476D01*
X7558809Y-17418714D01*
X7568333Y-17409190D01*
X7587381Y-17399667D01*
X7635000Y-17399667D01*
X7654048Y-17409190D01*
X7663571Y-17418714D01*
X7673095Y-17437762D01*
X7673095Y-17485381D01*
X7663571Y-17504429D01*
X7654048Y-17513952D01*
X7635000Y-17523476D01*
X7587381Y-17523476D01*
X7568333Y-17513952D01*
X7558809Y-17504429D01*
X7749286Y-17342524D02*
X7758809Y-17333000D01*
X7777857Y-17323476D01*
X7825476Y-17323476D01*
X7844524Y-17333000D01*
X7854048Y-17342524D01*
X7863571Y-17361571D01*
X7863571Y-17380619D01*
X7854048Y-17409190D01*
X7739762Y-17523476D01*
X7863571Y-17523476D01*
X8035000Y-17390143D02*
X8035000Y-17523476D01*
X7987381Y-17313952D02*
X7939762Y-17456810D01*
X8063571Y-17456810D01*
X8139762Y-17523476D02*
X8139762Y-17390143D01*
X8139762Y-17409190D02*
X8149286Y-17399667D01*
X8168333Y-17390143D01*
X8196905Y-17390143D01*
X8215952Y-17399667D01*
X8225476Y-17418714D01*
X8225476Y-17523476D01*
X8225476Y-17418714D02*
X8235000Y-17399667D01*
X8254048Y-17390143D01*
X8282619Y-17390143D01*
X8301667Y-17399667D01*
X8311190Y-17418714D01*
X8311190Y-17523476D01*
X8406429Y-17523476D02*
X8406429Y-17390143D01*
X8406429Y-17409190D02*
X8415952Y-17399667D01*
X8435000Y-17390143D01*
X8463571Y-17390143D01*
X8482619Y-17399667D01*
X8492143Y-17418714D01*
X8492143Y-17523476D01*
X8492143Y-17418714D02*
X8501667Y-17399667D01*
X8520714Y-17390143D01*
X8549286Y-17390143D01*
X8568333Y-17399667D01*
X8577857Y-17418714D01*
X8577857Y-17523476D01*
X8968333Y-17313952D02*
X8796905Y-17571095D01*
X9225476Y-17323476D02*
X9244524Y-17323476D01*
X9263571Y-17333000D01*
X9273095Y-17342524D01*
X9282619Y-17361571D01*
X9292143Y-17399667D01*
X9292143Y-17447286D01*
X9282619Y-17485381D01*
X9273095Y-17504429D01*
X9263571Y-17513952D01*
X9244524Y-17523476D01*
X9225476Y-17523476D01*
X9206429Y-17513952D01*
X9196905Y-17504429D01*
X9187381Y-17485381D01*
X9177857Y-17447286D01*
X9177857Y-17399667D01*
X9187381Y-17361571D01*
X9196905Y-17342524D01*
X9206429Y-17333000D01*
X9225476Y-17323476D01*
X9377857Y-17504429D02*
X9387381Y-17513952D01*
X9377857Y-17523476D01*
X9368333Y-17513952D01*
X9377857Y-17504429D01*
X9377857Y-17523476D01*
X9511190Y-17323476D02*
X9530238Y-17323476D01*
X9549286Y-17333000D01*
X9558810Y-17342524D01*
X9568333Y-17361571D01*
X9577857Y-17399667D01*
X9577857Y-17447286D01*
X9568333Y-17485381D01*
X9558810Y-17504429D01*
X9549286Y-17513952D01*
X9530238Y-17523476D01*
X9511190Y-17523476D01*
X9492143Y-17513952D01*
X9482619Y-17504429D01*
X9473095Y-17485381D01*
X9463571Y-17447286D01*
X9463571Y-17399667D01*
X9473095Y-17361571D01*
X9482619Y-17342524D01*
X9492143Y-17333000D01*
X9511190Y-17323476D01*
X9749286Y-17323476D02*
X9711190Y-17323476D01*
X9692143Y-17333000D01*
X9682619Y-17342524D01*
X9663571Y-17371095D01*
X9654048Y-17409190D01*
X9654048Y-17485381D01*
X9663571Y-17504429D01*
X9673095Y-17513952D01*
X9692143Y-17523476D01*
X9730238Y-17523476D01*
X9749286Y-17513952D01*
X9758810Y-17504429D01*
X9768333Y-17485381D01*
X9768333Y-17437762D01*
X9758810Y-17418714D01*
X9749286Y-17409190D01*
X9730238Y-17399667D01*
X9692143Y-17399667D01*
X9673095Y-17409190D01*
X9663571Y-17418714D01*
X9654048Y-17437762D01*
X9892143Y-17323476D02*
X9911190Y-17323476D01*
X9930238Y-17333000D01*
X9939762Y-17342524D01*
X9949286Y-17361571D01*
X9958810Y-17399667D01*
X9958810Y-17447286D01*
X9949286Y-17485381D01*
X9939762Y-17504429D01*
X9930238Y-17513952D01*
X9911190Y-17523476D01*
X9892143Y-17523476D01*
X9873095Y-17513952D01*
X9863571Y-17504429D01*
X9854048Y-17485381D01*
X9844524Y-17447286D01*
X9844524Y-17399667D01*
X9854048Y-17361571D01*
X9863571Y-17342524D01*
X9873095Y-17333000D01*
X9892143Y-17323476D01*
X10082619Y-17323476D02*
X10101667Y-17323476D01*
X10120714Y-17333000D01*
X10130238Y-17342524D01*
X10139762Y-17361571D01*
X10149286Y-17399667D01*
X10149286Y-17447286D01*
X10139762Y-17485381D01*
X10130238Y-17504429D01*
X10120714Y-17513952D01*
X10101667Y-17523476D01*
X10082619Y-17523476D01*
X10063571Y-17513952D01*
X10054048Y-17504429D01*
X10044524Y-17485381D01*
X10035000Y-17447286D01*
X10035000Y-17399667D01*
X10044524Y-17361571D01*
X10054048Y-17342524D01*
X10063571Y-17333000D01*
X10082619Y-17323476D01*
X10225476Y-17323476D02*
X10225476Y-17361571D01*
X10301667Y-17323476D02*
X10301667Y-17361571D01*
X10596905Y-17599667D02*
X10587381Y-17590143D01*
X10568333Y-17561571D01*
X10558810Y-17542524D01*
X10549286Y-17513952D01*
X10539762Y-17466333D01*
X10539762Y-17428238D01*
X10549286Y-17380619D01*
X10558810Y-17352048D01*
X10568333Y-17333000D01*
X10587381Y-17304429D01*
X10596905Y-17294905D01*
X10663571Y-17342524D02*
X10673095Y-17333000D01*
X10692143Y-17323476D01*
X10739762Y-17323476D01*
X10758810Y-17333000D01*
X10768333Y-17342524D01*
X10777857Y-17361571D01*
X10777857Y-17380619D01*
X10768333Y-17409190D01*
X10654048Y-17523476D01*
X10777857Y-17523476D01*
X10949286Y-17390143D02*
X10949286Y-17523476D01*
X10901667Y-17313952D02*
X10854048Y-17456810D01*
X10977857Y-17456810D01*
X11206428Y-17523476D02*
X11206428Y-17323476D01*
X11292143Y-17523476D02*
X11292143Y-17418714D01*
X11282619Y-17399667D01*
X11263571Y-17390143D01*
X11235000Y-17390143D01*
X11215952Y-17399667D01*
X11206428Y-17409190D01*
X11415952Y-17523476D02*
X11396905Y-17513952D01*
X11387381Y-17504429D01*
X11377857Y-17485381D01*
X11377857Y-17428238D01*
X11387381Y-17409190D01*
X11396905Y-17399667D01*
X11415952Y-17390143D01*
X11444524Y-17390143D01*
X11463571Y-17399667D01*
X11473095Y-17409190D01*
X11482619Y-17428238D01*
X11482619Y-17485381D01*
X11473095Y-17504429D01*
X11463571Y-17513952D01*
X11444524Y-17523476D01*
X11415952Y-17523476D01*
X11596905Y-17523476D02*
X11577857Y-17513952D01*
X11568333Y-17494905D01*
X11568333Y-17323476D01*
X11749286Y-17513952D02*
X11730238Y-17523476D01*
X11692143Y-17523476D01*
X11673095Y-17513952D01*
X11663571Y-17494905D01*
X11663571Y-17418714D01*
X11673095Y-17399667D01*
X11692143Y-17390143D01*
X11730238Y-17390143D01*
X11749286Y-17399667D01*
X11758809Y-17418714D01*
X11758809Y-17437762D01*
X11663571Y-17456810D01*
X11835000Y-17513952D02*
X11854048Y-17523476D01*
X11892143Y-17523476D01*
X11911190Y-17513952D01*
X11920714Y-17494905D01*
X11920714Y-17485381D01*
X11911190Y-17466333D01*
X11892143Y-17456810D01*
X11863571Y-17456810D01*
X11844524Y-17447286D01*
X11835000Y-17428238D01*
X11835000Y-17418714D01*
X11844524Y-17399667D01*
X11863571Y-17390143D01*
X11892143Y-17390143D01*
X11911190Y-17399667D01*
X11987381Y-17599667D02*
X11996905Y-17590143D01*
X12015952Y-17561571D01*
X12025476Y-17542524D01*
X12035000Y-17513952D01*
X12044524Y-17466333D01*
X12044524Y-17428238D01*
X12035000Y-17380619D01*
X12025476Y-17352048D01*
X12015952Y-17333000D01*
X11996905Y-17304429D01*
X11987381Y-17294905D01*
X6825000Y-17605400D02*
X7025000Y-17805400D01*
X7025000Y-17605400D02*
X6825000Y-17805400D01*
X6925000Y-17805400D02*
X7025000Y-17705400D01*
X6925000Y-17605400D01*
X6825000Y-17705400D01*
X6925000Y-17805400D01*
X7263571Y-17595876D02*
X7387381Y-17595876D01*
X7320714Y-17672067D01*
X7349286Y-17672067D01*
X7368333Y-17681590D01*
X7377857Y-17691114D01*
X7387381Y-17710162D01*
X7387381Y-17757781D01*
X7377857Y-17776829D01*
X7368333Y-17786352D01*
X7349286Y-17795876D01*
X7292143Y-17795876D01*
X7273095Y-17786352D01*
X7263571Y-17776829D01*
X7473095Y-17776829D02*
X7482619Y-17786352D01*
X7473095Y-17795876D01*
X7463571Y-17786352D01*
X7473095Y-17776829D01*
X7473095Y-17795876D01*
X7606428Y-17595876D02*
X7625476Y-17595876D01*
X7644524Y-17605400D01*
X7654048Y-17614924D01*
X7663571Y-17633971D01*
X7673095Y-17672067D01*
X7673095Y-17719686D01*
X7663571Y-17757781D01*
X7654048Y-17776829D01*
X7644524Y-17786352D01*
X7625476Y-17795876D01*
X7606428Y-17795876D01*
X7587381Y-17786352D01*
X7577857Y-17776829D01*
X7568333Y-17757781D01*
X7558809Y-17719686D01*
X7558809Y-17672067D01*
X7568333Y-17633971D01*
X7577857Y-17614924D01*
X7587381Y-17605400D01*
X7606428Y-17595876D01*
X7796905Y-17595876D02*
X7815952Y-17595876D01*
X7835000Y-17605400D01*
X7844524Y-17614924D01*
X7854048Y-17633971D01*
X7863571Y-17672067D01*
X7863571Y-17719686D01*
X7854048Y-17757781D01*
X7844524Y-17776829D01*
X7835000Y-17786352D01*
X7815952Y-17795876D01*
X7796905Y-17795876D01*
X7777857Y-17786352D01*
X7768333Y-17776829D01*
X7758809Y-17757781D01*
X7749286Y-17719686D01*
X7749286Y-17672067D01*
X7758809Y-17633971D01*
X7768333Y-17614924D01*
X7777857Y-17605400D01*
X7796905Y-17595876D01*
X7987381Y-17595876D02*
X8006428Y-17595876D01*
X8025476Y-17605400D01*
X8035000Y-17614924D01*
X8044524Y-17633971D01*
X8054048Y-17672067D01*
X8054048Y-17719686D01*
X8044524Y-17757781D01*
X8035000Y-17776829D01*
X8025476Y-17786352D01*
X8006428Y-17795876D01*
X7987381Y-17795876D01*
X7968333Y-17786352D01*
X7958809Y-17776829D01*
X7949286Y-17757781D01*
X7939762Y-17719686D01*
X7939762Y-17672067D01*
X7949286Y-17633971D01*
X7958809Y-17614924D01*
X7968333Y-17605400D01*
X7987381Y-17595876D01*
X8139762Y-17795876D02*
X8139762Y-17662543D01*
X8139762Y-17681590D02*
X8149286Y-17672067D01*
X8168333Y-17662543D01*
X8196905Y-17662543D01*
X8215952Y-17672067D01*
X8225476Y-17691114D01*
X8225476Y-17795876D01*
X8225476Y-17691114D02*
X8235000Y-17672067D01*
X8254048Y-17662543D01*
X8282619Y-17662543D01*
X8301667Y-17672067D01*
X8311190Y-17691114D01*
X8311190Y-17795876D01*
X8406429Y-17795876D02*
X8406429Y-17662543D01*
X8406429Y-17681590D02*
X8415952Y-17672067D01*
X8435000Y-17662543D01*
X8463571Y-17662543D01*
X8482619Y-17672067D01*
X8492143Y-17691114D01*
X8492143Y-17795876D01*
X8492143Y-17691114D02*
X8501667Y-17672067D01*
X8520714Y-17662543D01*
X8549286Y-17662543D01*
X8568333Y-17672067D01*
X8577857Y-17691114D01*
X8577857Y-17795876D01*
X8968333Y-17586352D02*
X8796905Y-17843495D01*
X9225476Y-17595876D02*
X9244524Y-17595876D01*
X9263571Y-17605400D01*
X9273095Y-17614924D01*
X9282619Y-17633971D01*
X9292143Y-17672067D01*
X9292143Y-17719686D01*
X9282619Y-17757781D01*
X9273095Y-17776829D01*
X9263571Y-17786352D01*
X9244524Y-17795876D01*
X9225476Y-17795876D01*
X9206429Y-17786352D01*
X9196905Y-17776829D01*
X9187381Y-17757781D01*
X9177857Y-17719686D01*
X9177857Y-17672067D01*
X9187381Y-17633971D01*
X9196905Y-17614924D01*
X9206429Y-17605400D01*
X9225476Y-17595876D01*
X9377857Y-17776829D02*
X9387381Y-17786352D01*
X9377857Y-17795876D01*
X9368333Y-17786352D01*
X9377857Y-17776829D01*
X9377857Y-17795876D01*
X9577857Y-17795876D02*
X9463571Y-17795876D01*
X9520714Y-17795876D02*
X9520714Y-17595876D01*
X9501667Y-17624448D01*
X9482619Y-17643495D01*
X9463571Y-17653019D01*
X9768333Y-17795876D02*
X9654048Y-17795876D01*
X9711190Y-17795876D02*
X9711190Y-17595876D01*
X9692143Y-17624448D01*
X9673095Y-17643495D01*
X9654048Y-17653019D01*
X9882619Y-17681590D02*
X9863571Y-17672067D01*
X9854048Y-17662543D01*
X9844524Y-17643495D01*
X9844524Y-17633971D01*
X9854048Y-17614924D01*
X9863571Y-17605400D01*
X9882619Y-17595876D01*
X9920714Y-17595876D01*
X9939762Y-17605400D01*
X9949286Y-17614924D01*
X9958810Y-17633971D01*
X9958810Y-17643495D01*
X9949286Y-17662543D01*
X9939762Y-17672067D01*
X9920714Y-17681590D01*
X9882619Y-17681590D01*
X9863571Y-17691114D01*
X9854048Y-17700638D01*
X9844524Y-17719686D01*
X9844524Y-17757781D01*
X9854048Y-17776829D01*
X9863571Y-17786352D01*
X9882619Y-17795876D01*
X9920714Y-17795876D01*
X9939762Y-17786352D01*
X9949286Y-17776829D01*
X9958810Y-17757781D01*
X9958810Y-17719686D01*
X9949286Y-17700638D01*
X9939762Y-17691114D01*
X9920714Y-17681590D01*
X10149286Y-17795876D02*
X10035000Y-17795876D01*
X10092143Y-17795876D02*
X10092143Y-17595876D01*
X10073095Y-17624448D01*
X10054048Y-17643495D01*
X10035000Y-17653019D01*
X10225476Y-17595876D02*
X10225476Y-17633971D01*
X10301667Y-17595876D02*
X10301667Y-17633971D01*
X10596905Y-17872067D02*
X10587381Y-17862543D01*
X10568333Y-17833971D01*
X10558810Y-17814924D01*
X10549286Y-17786352D01*
X10539762Y-17738733D01*
X10539762Y-17700638D01*
X10549286Y-17653019D01*
X10558810Y-17624448D01*
X10568333Y-17605400D01*
X10587381Y-17576829D01*
X10596905Y-17567305D01*
X10758810Y-17662543D02*
X10758810Y-17795876D01*
X10711190Y-17586352D02*
X10663571Y-17729210D01*
X10787381Y-17729210D01*
X11015952Y-17795876D02*
X11015952Y-17595876D01*
X11101667Y-17795876D02*
X11101667Y-17691114D01*
X11092143Y-17672067D01*
X11073095Y-17662543D01*
X11044524Y-17662543D01*
X11025476Y-17672067D01*
X11015952Y-17681590D01*
X11225476Y-17795876D02*
X11206428Y-17786352D01*
X11196905Y-17776829D01*
X11187381Y-17757781D01*
X11187381Y-17700638D01*
X11196905Y-17681590D01*
X11206428Y-17672067D01*
X11225476Y-17662543D01*
X11254048Y-17662543D01*
X11273095Y-17672067D01*
X11282619Y-17681590D01*
X11292143Y-17700638D01*
X11292143Y-17757781D01*
X11282619Y-17776829D01*
X11273095Y-17786352D01*
X11254048Y-17795876D01*
X11225476Y-17795876D01*
X11406428Y-17795876D02*
X11387381Y-17786352D01*
X11377857Y-17767305D01*
X11377857Y-17595876D01*
X11558809Y-17786352D02*
X11539762Y-17795876D01*
X11501667Y-17795876D01*
X11482619Y-17786352D01*
X11473095Y-17767305D01*
X11473095Y-17691114D01*
X11482619Y-17672067D01*
X11501667Y-17662543D01*
X11539762Y-17662543D01*
X11558809Y-17672067D01*
X11568333Y-17691114D01*
X11568333Y-17710162D01*
X11473095Y-17729210D01*
X11644524Y-17786352D02*
X11663571Y-17795876D01*
X11701667Y-17795876D01*
X11720714Y-17786352D01*
X11730238Y-17767305D01*
X11730238Y-17757781D01*
X11720714Y-17738733D01*
X11701667Y-17729210D01*
X11673095Y-17729210D01*
X11654048Y-17719686D01*
X11644524Y-17700638D01*
X11644524Y-17691114D01*
X11654048Y-17672067D01*
X11673095Y-17662543D01*
X11701667Y-17662543D01*
X11720714Y-17672067D01*
X11796905Y-17872067D02*
X11806428Y-17862543D01*
X11825476Y-17833971D01*
X11835000Y-17814924D01*
X11844524Y-17786352D01*
X11854048Y-17738733D01*
X11854048Y-17700638D01*
X11844524Y-17653019D01*
X11835000Y-17624448D01*
X11825476Y-17605400D01*
X11806428Y-17576829D01*
X11796905Y-17567305D01*
M02*
