%TF.GenerationSoftware,KiCad,Pcbnew,(6.0.9)*%
%TF.CreationDate,2024-03-02T11:40:23+05:30*%
%TF.ProjectId,CT_2.0.0,43545f32-2e30-42e3-902e-6b696361645f,rev?*%
%TF.SameCoordinates,Original*%
%TF.FileFunction,Drillmap*%
%TF.FilePolarity,Positive*%
%FSLAX45Y45*%
G04 Gerber Fmt 4.5, Leading zero omitted, Abs format (unit mm)*
G04 Created by KiCad (PCBNEW (6.0.9)) date 2024-03-02 11:40:23*
%MOMM*%
%LPD*%
G01*
G04 APERTURE LIST*
%ADD10C,0.100000*%
%ADD11C,0.200000*%
G04 APERTURE END LIST*
D10*
X7030000Y-4480000D02*
X13300000Y-4480000D01*
X13300000Y-4480000D02*
X13300000Y-14940000D01*
X13300000Y-14940000D02*
X7030000Y-14940000D01*
X7030000Y-14940000D02*
X7030000Y-4480000D01*
D11*
X7282619Y-15255476D02*
X7282619Y-15055476D01*
X7330238Y-15055476D01*
X7358809Y-15065000D01*
X7377857Y-15084048D01*
X7387381Y-15103095D01*
X7396905Y-15141190D01*
X7396905Y-15169762D01*
X7387381Y-15207857D01*
X7377857Y-15226905D01*
X7358809Y-15245952D01*
X7330238Y-15255476D01*
X7282619Y-15255476D01*
X7482619Y-15255476D02*
X7482619Y-15122143D01*
X7482619Y-15160238D02*
X7492143Y-15141190D01*
X7501667Y-15131667D01*
X7520714Y-15122143D01*
X7539762Y-15122143D01*
X7606428Y-15255476D02*
X7606428Y-15122143D01*
X7606428Y-15055476D02*
X7596905Y-15065000D01*
X7606428Y-15074524D01*
X7615952Y-15065000D01*
X7606428Y-15055476D01*
X7606428Y-15074524D01*
X7730238Y-15255476D02*
X7711190Y-15245952D01*
X7701667Y-15226905D01*
X7701667Y-15055476D01*
X7835000Y-15255476D02*
X7815952Y-15245952D01*
X7806428Y-15226905D01*
X7806428Y-15055476D01*
X8063571Y-15255476D02*
X8063571Y-15055476D01*
X8130238Y-15198333D01*
X8196905Y-15055476D01*
X8196905Y-15255476D01*
X8377857Y-15255476D02*
X8377857Y-15150714D01*
X8368333Y-15131667D01*
X8349286Y-15122143D01*
X8311190Y-15122143D01*
X8292143Y-15131667D01*
X8377857Y-15245952D02*
X8358809Y-15255476D01*
X8311190Y-15255476D01*
X8292143Y-15245952D01*
X8282619Y-15226905D01*
X8282619Y-15207857D01*
X8292143Y-15188809D01*
X8311190Y-15179286D01*
X8358809Y-15179286D01*
X8377857Y-15169762D01*
X8473095Y-15122143D02*
X8473095Y-15322143D01*
X8473095Y-15131667D02*
X8492143Y-15122143D01*
X8530238Y-15122143D01*
X8549286Y-15131667D01*
X8558810Y-15141190D01*
X8568333Y-15160238D01*
X8568333Y-15217381D01*
X8558810Y-15236428D01*
X8549286Y-15245952D01*
X8530238Y-15255476D01*
X8492143Y-15255476D01*
X8473095Y-15245952D01*
X8654048Y-15236428D02*
X8663571Y-15245952D01*
X8654048Y-15255476D01*
X8644524Y-15245952D01*
X8654048Y-15236428D01*
X8654048Y-15255476D01*
X8654048Y-15131667D02*
X8663571Y-15141190D01*
X8654048Y-15150714D01*
X8644524Y-15141190D01*
X8654048Y-15131667D01*
X8654048Y-15150714D01*
M02*
