%TF.GenerationSoftware,KiCad,Pcbnew,(6.0.9)*%
%TF.CreationDate,2024-03-02T11:40:50+05:30*%
%TF.ProjectId,CT_2.0.0,43545f32-2e30-42e3-902e-6b696361645f,rev?*%
%TF.SameCoordinates,Original*%
%TF.FileFunction,Soldermask,Top*%
%TF.FilePolarity,Negative*%
%FSLAX46Y46*%
G04 Gerber Fmt 4.6, Leading zero omitted, Abs format (unit mm)*
G04 Created by KiCad (PCBNEW (6.0.9)) date 2024-03-02 11:40:50*
%MOMM*%
%LPD*%
G01*
G04 APERTURE LIST*
G04 Aperture macros list*
%AMRoundRect*
0 Rectangle with rounded corners*
0 $1 Rounding radius*
0 $2 $3 $4 $5 $6 $7 $8 $9 X,Y pos of 4 corners*
0 Add a 4 corners polygon primitive as box body*
4,1,4,$2,$3,$4,$5,$6,$7,$8,$9,$2,$3,0*
0 Add four circle primitives for the rounded corners*
1,1,$1+$1,$2,$3*
1,1,$1+$1,$4,$5*
1,1,$1+$1,$6,$7*
1,1,$1+$1,$8,$9*
0 Add four rect primitives between the rounded corners*
20,1,$1+$1,$2,$3,$4,$5,0*
20,1,$1+$1,$4,$5,$6,$7,0*
20,1,$1+$1,$6,$7,$8,$9,0*
20,1,$1+$1,$8,$9,$2,$3,0*%
G04 Aperture macros list end*
%ADD10R,2.600000X2.600000*%
%ADD11C,2.600000*%
%ADD12C,1.600000*%
%ADD13O,1.600000X1.600000*%
%ADD14C,3.556000*%
%ADD15C,3.810000*%
%ADD16RoundRect,0.250000X-0.350000X-0.450000X0.350000X-0.450000X0.350000X0.450000X-0.350000X0.450000X0*%
%ADD17R,1.600000X1.600000*%
%ADD18C,1.524000*%
%ADD19R,1.600000X2.400000*%
%ADD20O,1.600000X2.400000*%
%ADD21RoundRect,0.250001X-0.499999X-0.924999X0.499999X-0.924999X0.499999X0.924999X-0.499999X0.924999X0*%
%ADD22C,4.000000*%
%ADD23RoundRect,0.250001X0.924999X-0.499999X0.924999X0.499999X-0.924999X0.499999X-0.924999X-0.499999X0*%
%ADD24R,1.700000X1.700000*%
%ADD25RoundRect,0.250000X0.350000X0.450000X-0.350000X0.450000X-0.350000X-0.450000X0.350000X-0.450000X0*%
%ADD26R,1.905000X2.000000*%
%ADD27O,1.905000X2.000000*%
%ADD28RoundRect,0.250000X-0.500000X-0.925000X0.500000X-0.925000X0.500000X0.925000X-0.500000X0.925000X0*%
%ADD29R,2.000000X1.905000*%
%ADD30O,2.000000X1.905000*%
%ADD31R,2.200000X2.200000*%
%ADD32O,2.200000X2.200000*%
G04 APERTURE END LIST*
D10*
%TO.C,J7*%
X76195000Y-51105000D03*
D11*
X81275000Y-51105000D03*
X86355000Y-51105000D03*
%TD*%
D12*
%TO.C,R7*%
X101600000Y-129540000D03*
D13*
X109220000Y-129540000D03*
%TD*%
D12*
%TO.C,R6*%
X104140000Y-116840000D03*
D13*
X111760000Y-116840000D03*
%TD*%
D14*
%TO.C,J5*%
X77825000Y-115240000D03*
D15*
X74650000Y-112065000D03*
X81000000Y-112065000D03*
X74650000Y-118415000D03*
X81000000Y-118415000D03*
%TD*%
D16*
%TO.C,R11*%
X113300000Y-109220000D03*
X115300000Y-109220000D03*
%TD*%
D17*
%TO.C,C3*%
X76200000Y-60960000D03*
D12*
X79700000Y-60960000D03*
%TD*%
D17*
%TO.C,C1*%
X101600000Y-60960000D03*
D12*
X101600000Y-64460000D03*
%TD*%
D18*
%TO.C,U8*%
X120424700Y-105785873D03*
X108050200Y-108642751D03*
%TD*%
D14*
%TO.C,J4*%
X77561500Y-140980000D03*
D15*
X80736500Y-144155000D03*
X80736500Y-137805000D03*
X74386500Y-137805000D03*
X74386500Y-144155000D03*
%TD*%
D12*
%TO.C,R5*%
X97790000Y-106680000D03*
D13*
X105410000Y-106680000D03*
%TD*%
D18*
%TO.C,U9*%
X103000000Y-99060000D03*
X103000000Y-83820000D03*
%TD*%
D17*
%TO.C,C4*%
X86360000Y-66040000D03*
D12*
X86360000Y-62540000D03*
%TD*%
D19*
%TO.C,U1*%
X100320000Y-86365000D03*
D20*
X97780000Y-86365000D03*
X95240000Y-86365000D03*
X92700000Y-86365000D03*
X92700000Y-96525000D03*
X95240000Y-96525000D03*
X97780000Y-96525000D03*
X100320000Y-96525000D03*
%TD*%
D21*
%TO.C,C7*%
X103375000Y-121920000D03*
X106625000Y-121920000D03*
%TD*%
D12*
%TO.C,R9*%
X110490000Y-111760000D03*
D13*
X118110000Y-111760000D03*
%TD*%
D21*
%TO.C,C10*%
X107595000Y-70000000D03*
X110845000Y-70000000D03*
%TD*%
D14*
%TO.C,J3*%
X78105000Y-80645000D03*
D15*
X74930000Y-83820000D03*
X81280000Y-77470000D03*
X74930000Y-77470000D03*
X81280000Y-83820000D03*
%TD*%
D17*
%TO.C,U6*%
X106751500Y-138440000D03*
D13*
X106751500Y-140980000D03*
X106751500Y-143520000D03*
X106751500Y-146060000D03*
X116911500Y-146060000D03*
X116911500Y-143520000D03*
X116911500Y-140980000D03*
X116911500Y-138440000D03*
%TD*%
D22*
%TO.C,*%
X86360000Y-124460000D03*
%TD*%
D10*
%TO.C,J1*%
X119375000Y-51105000D03*
D11*
X124455000Y-51105000D03*
X129535000Y-51105000D03*
%TD*%
D23*
%TO.C,C13*%
X106680000Y-93065000D03*
X106680000Y-89815000D03*
%TD*%
D17*
%TO.C,U3*%
X100320000Y-110140000D03*
D13*
X97780000Y-110140000D03*
X95240000Y-110140000D03*
X92700000Y-110140000D03*
X92700000Y-120300000D03*
X95240000Y-120300000D03*
X97780000Y-120300000D03*
X100320000Y-120300000D03*
%TD*%
D24*
%TO.C,TP5*%
X86360000Y-107620000D03*
%TD*%
D17*
%TO.C,U7*%
X118100000Y-93960000D03*
D13*
X115560000Y-93960000D03*
X113020000Y-93960000D03*
X110480000Y-93960000D03*
X110480000Y-104120000D03*
X113020000Y-104120000D03*
X115560000Y-104120000D03*
X118100000Y-104120000D03*
%TD*%
D24*
%TO.C,TP1*%
X86360000Y-96520000D03*
%TD*%
D14*
%TO.C,J9*%
X127000000Y-115240000D03*
D15*
X130175000Y-112065000D03*
X123825000Y-112065000D03*
X130175000Y-118415000D03*
X123825000Y-118415000D03*
%TD*%
D17*
%TO.C,U2*%
X87640000Y-138440000D03*
D13*
X87640000Y-140980000D03*
X87640000Y-143520000D03*
X87640000Y-146060000D03*
X95260000Y-146060000D03*
X95260000Y-143520000D03*
X95260000Y-140980000D03*
X95260000Y-138440000D03*
%TD*%
D25*
%TO.C,R10*%
X117840000Y-88900000D03*
X115840000Y-88900000D03*
%TD*%
D24*
%TO.C,TP4*%
X86360000Y-78740000D03*
%TD*%
D22*
%TO.C,*%
X116840000Y-124460000D03*
%TD*%
D12*
%TO.C,R1*%
X87721500Y-132080000D03*
D13*
X95341500Y-132080000D03*
%TD*%
D26*
%TO.C,U4*%
X114300000Y-63500000D03*
D27*
X111760000Y-63500000D03*
X109220000Y-63500000D03*
%TD*%
D12*
%TO.C,R4*%
X97790000Y-101600000D03*
D13*
X105410000Y-101600000D03*
%TD*%
D24*
%TO.C,TP3*%
X86080000Y-115875000D03*
%TD*%
D14*
%TO.C,J10*%
X126365000Y-80645000D03*
D15*
X129540000Y-83820000D03*
X129540000Y-77470000D03*
X123190000Y-77470000D03*
X123190000Y-83820000D03*
%TD*%
D12*
%TO.C,R3*%
X97790000Y-81280000D03*
D13*
X105410000Y-81280000D03*
%TD*%
D21*
%TO.C,C16*%
X92355000Y-81280000D03*
D28*
X95000000Y-81280000D03*
%TD*%
D24*
%TO.C,TP6*%
X119380000Y-129540000D03*
%TD*%
D22*
%TO.C,REF\u002A\u002A*%
X78740000Y-71120000D03*
%TD*%
%TO.C,*%
X124460000Y-71120000D03*
%TD*%
D12*
%TO.C,R8*%
X107950000Y-81280000D03*
D13*
X115570000Y-81280000D03*
%TD*%
D14*
%TO.C,J6*%
X126365000Y-141605000D03*
D15*
X123190000Y-144780000D03*
X129540000Y-138430000D03*
X129540000Y-144780000D03*
X123190000Y-138430000D03*
%TD*%
D12*
%TO.C,R2*%
X101600000Y-140970000D03*
D13*
X101600000Y-133350000D03*
%TD*%
D29*
%TO.C,U5*%
X93980000Y-60000000D03*
D30*
X93980000Y-57460000D03*
X93980000Y-54920000D03*
%TD*%
D24*
%TO.C,TP8*%
X121920000Y-88900000D03*
%TD*%
D17*
%TO.C,C2*%
X99060000Y-50800000D03*
D12*
X99060000Y-47300000D03*
%TD*%
D10*
%TO.C,J12*%
X77680000Y-101590000D03*
D11*
X77680000Y-106670000D03*
%TD*%
D18*
%TO.C,RV1*%
X114300000Y-134620000D03*
X111760000Y-134620000D03*
X109220000Y-134620000D03*
%TD*%
D31*
%TO.C,D1*%
X106680000Y-58420000D03*
D32*
X106680000Y-48260000D03*
%TD*%
D10*
%TO.C,J14*%
X77680000Y-88890000D03*
D11*
X77680000Y-93970000D03*
%TD*%
D10*
%TO.C,J2*%
X127000000Y-132080000D03*
D11*
X127000000Y-127000000D03*
%TD*%
D31*
%TO.C,D3*%
X119380000Y-66040000D03*
D32*
X129540000Y-66040000D03*
%TD*%
D10*
%TO.C,J15*%
X127000000Y-93980000D03*
D11*
X127000000Y-88900000D03*
%TD*%
D31*
%TO.C,D4*%
X129540000Y-60960000D03*
D32*
X119380000Y-60960000D03*
%TD*%
D31*
%TO.C,D2*%
X111760000Y-48260000D03*
D32*
X111760000Y-58420000D03*
%TD*%
D10*
%TO.C,J11*%
X77680000Y-126908500D03*
D11*
X77680000Y-131988500D03*
%TD*%
D10*
%TO.C,J13*%
X127000000Y-106680000D03*
D11*
X127000000Y-101600000D03*
%TD*%
M02*
