M48
; DRILL file {KiCad (6.0.9)} date Thu Apr 20 10:45:42 2023
; FORMAT={-:-/ absolute / inch / decimal}
; #@! TF.CreationDate,2023-04-20T10:45:42+05:30
; #@! TF.GenerationSoftware,Kicad,Pcbnew,(6.0.9)
; #@! TF.FileFunction,Plated,1,2,PTH
FMAT,2
INCH
; #@! TA.AperFunction,Plated,PTH,ComponentDrill
T1C0.0300
; #@! TA.AperFunction,Plated,PTH,ComponentDrill
T2C0.0315
; #@! TA.AperFunction,Plated,PTH,ComponentDrill
T3C0.0394
; #@! TA.AperFunction,Plated,PTH,ComponentDrill
T4C0.0433
; #@! TA.AperFunction,Plated,PTH,ComponentDrill
T5C0.0500
; #@! TA.AperFunction,Plated,PTH,ComponentDrill
T6C0.0512
; #@! TA.AperFunction,Plated,PTH,ComponentDrill
T7C0.0591
; #@! TA.AperFunction,Plated,PTH,ComponentDrill
T8C0.0600
; #@! TA.AperFunction,Plated,PTH,ComponentDrill
T9C0.1181
%
G90
G05
T1
X3.1496Y-4.1
X3.1496Y-4.7
X3.2Y-4.7756
X3.7Y-4.7756
T2
X2.0622Y-3.5
X2.2Y-3.5
X2.4622Y-3.6
X2.5835Y-4.0504
X2.5835Y-4.1504
X2.5835Y-4.2504
X2.5835Y-4.3504
X2.5992Y-3.9
X2.5992Y-4.7315
X2.5992Y-4.8315
X2.5992Y-4.9315
X2.5992Y-5.0315
X2.6Y-3.6
X2.65Y-4.5866
X2.65Y-5.5
X2.6504Y-5.7
X2.6504Y-5.8
X2.6504Y-5.9
X2.6504Y-6.0
X2.8992Y-3.9
X2.95Y-4.5866
X2.95Y-5.5
X2.9504Y-5.7
X2.9504Y-5.8
X2.9504Y-5.9
X2.9504Y-6.0
X2.9835Y-4.0504
X2.9835Y-4.1504
X2.9835Y-4.2504
X2.9835Y-4.3504
X2.9992Y-4.7315
X2.9992Y-4.8315
X2.9992Y-4.9315
X2.9992Y-5.0315
X3.0Y-3.6
X3.0Y-3.9
X3.0949Y-2.904
X3.0949Y-3.0418
X3.1Y-5.9
X3.15Y-4.9315
X3.2026Y-5.6181
X3.2571Y-3.6418
X3.2598Y-4.1654
X3.3Y-5.4
X3.3496Y-4.2992
X3.3496Y-4.6992
X3.3496Y-5.1
X3.35Y-5.6635
X3.35Y-5.7635
X3.35Y-5.8635
X3.35Y-5.9635
X3.3949Y-3.6418
X3.4496Y-4.2992
X3.4496Y-4.6992
X3.45Y-4.9315
X3.5496Y-4.2992
X3.5496Y-4.6992
X3.5553Y-4.1133
X3.6Y-5.4
X3.6496Y-4.2992
X3.6496Y-4.6992
X3.6496Y-5.1
X3.75Y-5.6635
X3.75Y-5.7635
X3.75Y-5.8635
X3.75Y-5.9635
T3
X2.1Y-4.1
X2.2Y-4.8
X2.5Y-4.5
X2.5Y-5.7
X2.6Y-5.2
X3.75Y-4.9
X3.8Y-4.2
X3.85Y-5.5
T4
X2.7949Y-2.9418
X2.7949Y-3.0418
X2.7949Y-3.1418
X2.8949Y-3.3418
X2.9949Y-3.3418
X3.0949Y-3.3418
X3.3949Y-2.9418
X3.3949Y-3.3418
X3.5949Y-2.9418
X3.5949Y-3.3418
X3.7949Y-3.3418
X3.7949Y-3.5418
X4.1949Y-3.3418
X4.1949Y-3.5418
T5
X2.175Y-4.425
X2.175Y-5.1
X2.175Y-5.7615
X4.1Y-4.2
X4.1Y-4.9
X4.1Y-5.825
T6
X2.1002Y-3.0418
X2.3002Y-3.0418
X2.5002Y-3.0418
X3.7949Y-3.0418
X3.9949Y-3.0418
X4.1949Y-3.0418
T7
X2.2Y-3.8
X2.2Y-5.4
X4.2Y-5.4
T8
X2.05Y-4.3
X2.05Y-4.55
X2.05Y-4.975
X2.05Y-5.225
X2.05Y-5.6365
X2.05Y-5.8865
X2.3Y-4.3
X2.3Y-4.55
X2.3Y-4.975
X2.3Y-5.225
X2.3Y-5.6365
X2.3Y-5.8865
X3.975Y-4.075
X3.975Y-4.325
X3.975Y-4.775
X3.975Y-5.025
X3.975Y-5.7
X3.975Y-5.95
X4.225Y-4.075
X4.225Y-4.325
X4.225Y-4.775
X4.225Y-5.025
X4.225Y-5.7
X4.225Y-5.95
T9
X2.2Y-5.4
X4.2Y-3.8
X4.2Y-5.4
T0
M30
